<?xml version="1.0" encoding="utf-8"?>
<!-- Generator: Adobe Illustrator 27.9.2, SVG Export Plug-In . SVG Version: 6.00 Build 0)  -->
<svg version="1.1" id="Layer_1" xmlns="http://www.w3.org/2000/svg" xmlns:xlink="http://www.w3.org/1999/xlink" x="0px" y="0px"
	 viewBox="0 0 597.4 279.7" enable-background="new 0 0 597.4 279.7" xml:space="preserve">
<g>
	<g>
		<path fill="#006432" d="M112.4,69C83.6,78.3,69,102.8,69,140.6v57.3c0,0,4.8-36.8,43.5-47.5V69z"/>
		<path fill="#E61E1E" d="M115.6,79.8c0,0,21.9-8.3,53.2-10.1c0,0-0.1,26.1-0.9,47.3c-2.6,67-62.5,32.6-91.8,68.2
			c5.9-15.4,25.9-26.4,39.5-29.1V79.8z"/>
		<path fill="#006432" d="M107.6,175.4c0,0-31.8,2.6-34.5,20.7c-2.1,14.2,34.5,14.6,34.5,14.6V175.4z"/>
		<path fill="#82B446" d="M70.3,122c6.6-15.4,17.7-31.1,42.1-41V69C88.6,76.7,74.5,94.7,70.3,122z"/>
		<g>
			<path fill="#FFAA00" d="M89.8,105.4L89.8,105.4C89.8,105.4,89.8,105.4,89.8,105.4C89.8,105.4,89.8,105.4,89.8,105.4
				C89.8,105.4,89.8,105.4,89.8,105.4L89.8,105.4c0.1,0,0.1,0,0.1,0c0,0,0,0,0,0c0,0,0,0,0,0h0c0,0,0.1,0,0.1,0l0,0l0,0
				c0.1,0,0.3,0,0.4,0h0.1c0.1,0,0.3,0,0.4,0l0,0l0,0c0,0,0.1,0,0.1,0c0,0,0,0,0,0c0.1,0,0.2,0,0.3,0l0,0c0,0,0.1,0,0.1,0l0,0
				c0.1,0,0.2,0,0.3,0.1l0,0c0,0,0.1,0,0.1,0h0c0.1,0,0.2,0.1,0.3,0.1l0,0c0.4,0.1,0.8,0.2,1.2,0.4l0,0l0,0c0,0,0.1,0,0.1,0
				c0,0,0,0,0,0c0,0,0.1,0,0.1,0c0,0,0,0,0,0c0.1,0,0.3,0.1,0.4,0.1c0,0,0,0,0.1,0c0,0,0.1,0,0.1,0c0,0,0,0,0.1,0c0,0,0.1,0,0.1,0
				c0.1,0,0.1,0,0.2,0.1c0,0,0.1,0,0.1,0c0,0,0.1,0,0.1,0c0,0,0.1,0,0.1,0c0,0,0.1,0,0.1,0c0,0,0.1,0,0.1,0c0.1,0,0.1,0.1,0.2,0.1
				c0,0,0,0,0,0c0.1,0,0.1,0,0.2,0.1c0,0,0,0,0.1,0c0,0,0.1,0,0.2,0.1c0,0,0,0,0.1,0c0.1,0,0.1,0.1,0.2,0.1V106v-0.8
				c-0.2,0.1-0.5,0.1-0.7,0.2c-0.2,0-0.4,0.1-0.6,0.1l0,0c-0.1,0-0.1,0-0.2-0.1c0,0-0.1,0-0.1,0c0,0-0.1,0-0.1,0c0,0-0.1,0-0.1,0
				c0,0,0,0-0.1,0c0,0-0.1,0-0.1,0c0,0,0,0-0.1,0c-0.5-0.2-0.9-0.3-1.3-0.4c0,0,0,0,0,0c0,0-0.1,0-0.1,0c0,0,0,0,0,0
				c0,0-0.1,0-0.1,0c0,0,0,0,0,0c0,0-0.1,0-0.1,0l0,0c0,0,0,0,0,0c0,0,0,0,0,0c0.1,0,0.1,0,0.2-0.1c0,0,0,0,0,0c0.1,0,0.1,0,0.2,0
				c0,0,0,0,0,0c0.1,0,0.1,0,0.2-0.1l0,0c0.1,0,0.2-0.1,0.4-0.1v0c0.1,0,0.1,0,0.2-0.1h0c0.8-0.2,1.7-0.5,2.7-0.7V103c0,0,0,0,0,0
				c0,0,0,0,0,0v-1c-0.5,0.4-0.9,0.9-1.4,1.4c-1.1,0.3-2.1,0.6-2.9,0.9c4.7-6.2,12-10.3,20.3-10.9l0.1-0.7
				c-8.9,0.6-16.7,5.2-21.6,12c-0.4,0-0.7,0.1-0.9,0.2c0,0,0,0,0,0l-0.4,0.8c0,0-0.1,0.2,0,0.4C89.2,105.7,89.4,105.5,89.8,105.4z
				 M91.5,104.6C91.5,104.6,91.5,104.6,91.5,104.6C91.5,104.6,91.5,104.6,91.5,104.6L91.5,104.6z M111.7,95.7c-4.9,0.4-9.3,2.2-13,5
				h-1.2c4-3.2,8.9-5.3,14.3-5.7L111.7,95.7z M87.1,110.2c-0.1-0.2,0-0.4,0-0.5l0.4-0.7c0,0,0,0,0,0c0.1-0.1,0.3-0.1,0.5-0.1
				c0,0,0,0,0,0s0,0,0,0l0,0c0.1,0,0.1,0,0.2,0c0.2,0,0.4,0,0.6,0.1l0,0c0.5,0.1,1,0.2,1.6,0.4c0.2,0.1,0.5,0.1,0.7,0.2l0,0
				c0.1,0,0.2,0.1,0.3,0.1l0,0c0,0,0.1,0,0.1,0l0,0c0,0,0.1,0,0.1,0l0,0c0,0,0.1,0,0.1,0c0,0,0,0,0,0c0,0,0.1,0,0.1,0h0
				c0,0,0.1,0,0.1,0.1h0c0,0,0.1,0,0.1,0c0,0,0,0,0,0c0,0,0.1,0,0.1,0h0c0,0,0.1,0,0.1,0.1h0c0,0,0.1,0,0.1,0.1c0,0,0,0,0,0
				c0,0,0.1,0,0.1,0c0,0,0,0,0,0c0,0,0.1,0,0.1,0.1c0,0,0,0,0,0c0,0,0.1,0,0.1,0c0,0,0,0,0,0c0,0,0.1,0,0.1,0c0,0,0,0,0,0
				c0,0,0.1,0,0.1,0c0,0,0,0,0,0c0,0,0.1,0,0.1,0c0,0,0,0,0,0c0,0,0.1,0,0.1,0.1c0,0,0,0,0,0c0,0,0.1,0,0.1,0c0,0,0,0,0,0
				c0,0,0.1,0,0.1,0c0,0,0,0,0,0c0,0,0.1,0,0.1,0.1c0,0,0,0,0,0c0,0,0.1,0,0.1,0c0,0,0,0,0,0c0,0,0.1,0,0.1,0c0,0,0,0,0.1,0
				c0,0,0.1,0,0.1,0c0,0,0,0,0.1,0c0,0,0.1,0,0.1,0c0,0,0,0,0.1,0c0,0,0.1,0,0.1,0c0,0,0,0,0.1,0c0,0,0.1,0,0.1,0c0,0,0,0,0.1,0
				c0,0,0.1,0,0.1,0c0,0,0,0,0.1,0c0,0,0.1,0,0.1,0c0,0,0,0,0.1,0c0,0,0.1,0,0.1,0c0,0,0.1,0,0.1,0c0,0,0.1,0,0.1,0.1c0,0,0,0,0,0
				c0.1,0,0.1,0.1,0.2,0.1v0.9c-2-0.9-3.8-1.6-5.2-2l0,0l0,0c-0.2-0.1-0.5-0.2-0.7-0.2h0c-0.6-0.2-1.2-0.3-1.6-0.4c0,0,0,0-0.1,0
				c0,0,0,0,0,0c0,0,0,0-0.1,0c0,0,0,0,0,0c0,0,0,0-0.1,0c0,0,0,0,0,0c0,0,0,0,0,0c0,0,0,0,0,0c0,0,0,0,0,0c0,0,0,0,0,0c0,0,0,0,0,0
				c0,0,0,0,0,0c0,0,0,0,0,0c0,0,0,0-0.1,0c-0.1,0-0.2,0-0.3,0l0,0C87.4,109.6,87.2,109.7,87.1,110.2z M95.8,139.3
				c4.1,4.2,9.7,6.9,15.8,7.5l0.1,0.8c-7.9-0.6-14.8-4.8-19.1-10.8c0.5,0,0.8,0,1,0C94.3,137.6,95,138.4,95.8,139.3
				C95.8,139.3,95.8,139.3,95.8,139.3L95.8,139.3z M114.9,92.5v-0.1V92c0,0,0,0,0-0.1c0,0,0,0,0,0h0.6c0.1,0,0.1,0,0.1,0.1v0.5
				c9.1,0.5,17.1,5.2,22,12.3c0.4,0.2,0.6,0.3,0.9,0.5c0,0,0,0,0,0c0,0,0.4,0.7,0.6,0.9c0.1,0.1,0,0.3-0.1,0.4
				c0.1-0.1,0.1-0.2-0.1-0.4c-0.1-0.1-0.2-0.2-0.3-0.2l0,0l0,0c0,0,0,0-0.1,0l0,0c0,0-0.1,0-0.1-0.1l0,0c-0.4-0.2-0.8-0.4-1.3-0.6
				l0,0l0,0c-0.1,0-0.1,0-0.1-0.1c0,0,0,0,0,0c0,0-0.1,0-0.1-0.1c0,0,0,0,0,0c0,0-0.1,0-0.1-0.1l0,0c-0.1,0-0.1,0-0.2-0.1
				c0,0,0,0,0,0c0,0-0.1,0-0.2-0.1l0,0c0,0-0.1,0-0.2-0.1c0,0,0,0,0,0c-0.1,0-0.1,0-0.2-0.1c0,0,0,0,0,0c-0.1,0-0.2-0.1-0.3-0.1
				c0,0,0,0,0,0c0,0-0.1,0-0.2-0.1h0c-0.1,0-0.1,0-0.2-0.1h0c-0.1,0-0.1,0-0.2-0.1c0,0,0,0,0,0c-0.1,0-0.1,0-0.2,0l0,0
				c-0.1,0-0.1,0-0.2-0.1c0,0,0,0,0,0c-0.1,0-0.1,0-0.2,0c0,0,0,0,0,0c-0.5-0.1-1-0.3-1.5-0.4l0,0l0,0c-0.1,0-0.2,0-0.3-0.1l0,0
				c-0.1,0-0.2,0-0.2-0.1l0,0c-0.1,0-0.2,0-0.2,0c0,0,0,0,0,0c-0.1,0-0.2,0-0.2-0.1h0v-0.8l0,0v-1c0.5,0.4,0.9,0.9,1.3,1.4
				c1.1,0.3,2.1,0.6,2.9,0.9c-4.8-6.3-12.2-10.4-20.6-10.9v1.6c5.7,0.3,10.8,2.5,15,5.8h-1.2c-3.9-2.9-8.6-4.7-13.8-5.1v5h-0.8v-5.1
				v-0.7v-1.6V92.5z M139.3,107.4c0.3,0.1,0.5,0.3,0.6,0.4c0,0,0.3,0.6,0.4,0.7c0.1,0.1,0,0.3-0.2,0.4c0.1,0,0.2-0.2-0.1-0.3
				c-0.1,0-0.2-0.1-0.2-0.1l0,0c0,0,0,0,0,0c-0.8-0.4-1.9-0.8-3.4-1.2v0c-0.3-0.1-0.7-0.2-1.1-0.3v0c-1-0.2-2.1-0.5-3.2-0.8v-0.8
				c0.1,0,0.3,0.1,0.4,0.1c0,0,0,0,0,0c0,0,0.1,0,0.1,0c0,0,0,0,0,0c0,0,0.1,0,0.1,0c0,0,0,0,0,0c0,0,0.1,0,0.1,0c0,0,0,0,0,0
				c0,0,0.1,0,0.1,0c0,0,0,0,0.1,0c0,0,0.1,0,0.1,0c0,0,0,0,0.1,0c0,0,0.1,0,0.1,0c0,0,0.1,0,0.1,0c0,0,0,0,0,0c0,0,0.1,0,0.1,0
				c0,0,0,0,0,0c0,0,0.1,0,0.1,0c0,0,0,0,0,0c0,0,0.1,0,0.1,0c0,0,0,0,0,0c0,0,0.1,0,0.1,0c0,0,0,0,0,0c0,0,0.1,0,0.1,0c0,0,0,0,0,0
				c0,0,0.1,0,0.1,0c0,0,0,0,0,0c0,0,0.1,0,0.2,0c0.4,0.1,0.8,0.2,1.1,0.3c0.1,0,0.1,0,0.2,0l0,0c0.1,0,0.2,0.1,0.3,0.1l0,0
				c0.2,0.1,0.3,0.1,0.5,0.1l0,0c0.5,0.2,1,0.3,1.4,0.5l0,0C138.6,107.1,138.9,107.2,139.3,107.4
				C139.2,107.4,139.3,107.4,139.3,107.4L139.3,107.4z M112.4,92.5c0,0-0.1,0-0.1,0C112.3,92.5,112.4,92.5,112.4,92.5z M84.9,120.6
				v-0.7c0,0,0,0,0,0c0.1-0.2,0.2-0.4,0.5-0.6c0.2-3.1,0.9-6,2-8.7c0,0,0,0,0,0c0,0,0-0.1,0-0.1c0-0.1,0-0.1,0.1-0.2v0
				c0-0.1,0.1-0.2,0.1-0.3c0,0,0-0.1,0-0.1c0.1,0,0.4,0.1,0.7,0.2c-1.2,2.7-1.9,5.6-2.2,8.6c0.5-0.3,1-0.5,1.7-0.8
				c0.3-2.4,0.9-4.7,1.8-6.9c0.2,0.2,0.4,0.4,0.6,0.6c-0.2,0.4-0.3,0.8-0.4,1.2c0,0,0,0,0,0c-0.5,1.5-0.9,3.1-1.2,4.8
				c1.8-0.6,4-1.2,6.5-1.7c0.3-0.1,0.6-0.1,1-0.2v0.8c-0.3,0.1-0.5,0.1-0.8,0.2c-0.1,0-0.1,0-0.2,0h0c-0.1,0-0.1,0-0.2,0
				c0,0,0,0,0,0c-0.1,0-0.1,0-0.2,0h0c-0.1,0-0.1,0-0.2,0h0c-0.1,0-0.1,0-0.2,0c0,0,0,0,0,0c-0.1,0-0.1,0-0.2,0c0,0,0,0,0,0
				c-0.1,0-0.1,0-0.2,0c0,0,0,0,0,0c-0.1,0-0.1,0-0.2,0.1h0c-0.1,0-0.1,0-0.2,0h0c-0.1,0-0.1,0-0.2,0.1c0,0,0,0,0,0
				c-0.1,0-0.2,0-0.2,0.1l0,0c-0.1,0-0.1,0-0.2,0.1c0,0,0,0,0,0c-0.1,0-0.1,0-0.2,0.1c0,0,0,0,0,0c-0.1,0-0.1,0-0.2,0.1l0,0
				c-0.1,0-0.1,0-0.2,0.1h0c-0.1,0-0.1,0-0.2,0.1c0,0,0,0,0,0c-0.1,0-0.1,0-0.2,0.1c0,0,0,0,0,0c-0.1,0-0.3,0.1-0.4,0.1l0,0
				c-0.1,0-0.1,0-0.2,0.1h0c-0.1,0-0.1,0-0.2,0.1c0,0,0,0,0,0c-0.1,0-0.1,0-0.2,0.1l0,0c-0.1,0-0.1,0-0.2,0.1h0
				c-0.1,0-0.1,0-0.2,0.1c0,0,0,0,0,0c-0.1,0-0.3,0.1-0.4,0.1h0c-0.1,0-0.1,0-0.2,0.1h0c-0.1,0-0.1,0-0.2,0.1c0,0,0,0,0,0
				c-0.1,0.1-0.3,0.1-0.4,0.1c0,0,0,0,0,0c-0.1,0-0.1,0-0.2,0.1c0,0,0,0,0,0c-0.1,0-0.1,0-0.2,0.1l0,0l0,0c-0.3,0.1-0.5,0.2-0.8,0.3
				l0,0l0,0c0,0-0.1,0-0.1,0c0,0,0,0,0,0c0,0-0.1,0-0.1,0c0,0,0,0,0,0c-0.1,0-0.2,0.1-0.2,0.1h0c0,0-0.1,0-0.1,0.1c0,0,0,0,0,0
				c0,0-0.1,0-0.1,0.1l0,0c0,0-0.1,0-0.1,0.1l0,0c0,0-0.1,0-0.1,0l0,0c0,0-0.1,0-0.1,0.1h0c-0.1,0-0.1,0.1-0.2,0.1h0
				c0,0-0.1,0-0.1,0.1h0c-0.1,0-0.1,0.1-0.2,0.1l0,0c0,0-0.1,0-0.1,0c0,0,0,0,0,0c0,0-0.1,0-0.1,0.1l0,0l0,0
				c-0.3,0.2-0.5,0.4-0.7,0.6c0,0,0,0,0,0l0,0c-0.2,0.2-0.4,0.4-0.3,0.5C84.9,120.7,84.9,120.7,84.9,120.6z M112.4,94.9v-1.6v-0.8
				V92c0,0,0-0.1,0.1-0.1h0.6c0,0,0.1,0,0.1,0.1v0.3v0.1v0.7v1.6v0.7v5.1l-0.8,0V94.9z M137.4,138.3c0,0.2,0,0.3-0.1,0.4
				c0,0-0.2,0.4-0.3,0.5c-0.1,0.1-0.2,0.3-0.5,0.3c0.1,0,0.5-0.1,0.3-0.8l0,0l0,0c0-0.1-0.1-0.1-0.1-0.2c-0.1-0.1-0.2-0.3-0.3-0.5h0
				c-0.3-0.3-0.6-0.8-1.1-1.2l0,0c-0.2-0.2-0.3-0.3-0.5-0.5l0,0c-1.1-1-2.6-2.3-4.6-3.8c0.1-0.2,0.2-0.5,0.4-0.7l0,0l0,0
				c2.3,1.7,4.1,3.2,5.3,4.4l0,0c0.1,0.1,0.2,0.2,0.3,0.3c0,0,0,0,0,0c0,0,0.1,0,0.1,0.1c0,0,0,0,0,0c0,0,0,0,0.1,0.1c0,0,0,0,0,0
				c0,0,0,0.1,0.1,0.1c0,0,0,0,0,0c0,0,0,0,0.1,0.1c0,0,0,0,0,0c0,0,0,0,0.1,0.1c0,0,0,0,0,0c0,0,0,0.1,0.1,0.1c0,0,0,0,0,0
				c0.1,0.1,0.1,0.1,0.1,0.1l0,0c0,0,0,0,0.1,0.1c0,0,0,0,0,0c0,0,0,0,0,0.1c0,0,0,0,0,0c0.2,0.3,0.4,0.5,0.4,0.7c0,0,0,0,0,0
				c0,0,0,0,0,0c0,0,0,0,0,0c0,0,0,0,0,0C137.4,138.3,137.4,138.3,137.4,138.3z M136.6,139.1c-0.1,0.1-0.1,0.2-0.2,0.2l0,0
				c-0.1,0.1-0.1,0.2-0.2,0.2c-5,6-12.3,9.9-20.5,10.4v0.4c0,0,0,0,0,0.1c0,0,0,0-0.1,0H115c0,0-0.1,0-0.1-0.1v-0.2V150v-0.7v-1.6
				v-0.7v-4.2c0.3,0,0.5,0,0.8,0v4.2c6.4-0.4,12.1-3.2,16.4-7.4l0,0c0,0,0,0,0,0c0.1-0.1,0.1-0.1,0.2-0.2c0,0,0,0,0,0
				c0.5-0.5,1-1.1,1.5-1.7c0.3,0.1,0.5,0.2,0.8,0.2c-4.5,5.6-11.3,9.3-18.9,9.8v1.6c8.3-0.5,15.6-4.5,20.4-10.6
				C136.3,138.8,136.5,139,136.6,139.1z M142.7,123.1c0,0.1,0,0.3,0,0.4l0,0c-0.3,3.7-1.3,7.2-2.9,10.4c0.2,0.4,0.2,0.7,0.1,1
				c0,0-0.2,0.3-0.4,0.5c-0.1,0.2-0.2,0.2-0.4,0.3c0.1,0,0.4-0.3,0.3-0.8l0,0c0-0.1,0-0.1-0.1-0.2h0l0,0c0-0.1-0.1-0.2-0.2-0.4
				c-0.2-0.3-0.5-0.6-0.8-1h0c0,0,0-0.1-0.1-0.1c0,0,0,0,0,0c0,0,0-0.1-0.1-0.1v0c-0.3-0.4-0.7-0.8-1.2-1.2c0,0,0,0,0,0
				c0,0-0.1-0.1-0.1-0.1c0,0,0,0,0,0c-0.1-0.1-0.3-0.3-0.4-0.4c0,0,0,0,0,0c0,0-0.1-0.1-0.1-0.1c0,0,0,0,0,0
				c-0.1-0.1-0.3-0.3-0.5-0.4c0,0,0,0,0,0c-0.1,0-0.1-0.1-0.1-0.1c0,0,0,0,0,0c-0.2-0.1-0.3-0.3-0.5-0.4c0,0,0,0,0,0
				c0,0-0.1-0.1-0.1-0.1c0,0,0,0,0,0c-0.1,0-0.1-0.1-0.2-0.1c0,0,0,0,0,0c-0.1-0.1-0.2-0.2-0.3-0.3c0,0,0,0,0,0
				c-0.1,0-0.1-0.1-0.1-0.1c0,0,0,0,0,0c0,0-0.1-0.1-0.2-0.1c0,0,0,0,0,0c-0.1,0-0.1-0.1-0.2-0.1l0,0c-0.1,0-0.1-0.1-0.2-0.1
				c0,0,0,0,0,0c0,0-0.1-0.1-0.1-0.1c0,0,0,0,0,0c0,0-0.1-0.1-0.1-0.1c0,0,0,0,0,0c-0.1,0-0.1-0.1-0.2-0.1c0,0,0,0,0,0
				c-0.1,0-0.1-0.1-0.2-0.1c0,0,0,0-0.1,0c0,0-0.1-0.1-0.1-0.1c0,0,0,0-0.1,0c0,0-0.1-0.1-0.1-0.1c0,0,0,0,0,0
				c-0.1,0-0.1-0.1-0.2-0.1c0,0,0,0,0,0c-0.1,0-0.1-0.1-0.2-0.1c0,0,0,0,0,0c0,0-0.1-0.1-0.1-0.1c0,0,0,0-0.1,0c0,0-0.1-0.1-0.1-0.1
				c0,0,0,0-0.1,0c-0.1,0-0.1-0.1-0.2-0.1c0.1-0.3,0.1-0.6,0.1-0.9c2.3,1.7,4.3,3.3,5.7,4.7c0.9-2.1,1.5-4.3,1.8-6.6l0,0
				c0,0,0-0.1,0-0.1v0c0-0.1,0-0.2,0-0.3c0,0,0,0,0-0.1c0-0.1,0-0.2,0-0.3c0,0,0-0.1,0-0.1c0-0.1,0-0.1,0-0.2c0-0.1,0-0.1,0-0.2
				c0,0,0-0.1,0-0.1c0-0.1,0-0.1,0-0.2c0,0,0-0.1,0-0.1c0,0,0-0.1,0-0.1c0-0.1,0-0.2,0-0.3c0.2,0,0.4,0,0.7,0
				c-0.2,3.3-0.9,6.5-2.2,9.3c0.5,0.5,0.9,0.9,1.2,1.3c1.5-3.2,2.4-6.7,2.6-10.4C142.2,122.9,142.5,123,142.7,123.1z M143.2,119.8
				C143.2,119.8,143.2,119.8,143.2,119.8v0.8c0,0.1-0.1,0.2-0.2,0.2c0.1-0.1,0-0.3-0.2-0.4l0,0l0,0c0,0-0.1-0.1-0.1-0.1
				c0,0,0,0-0.1-0.1c-0.2-0.2-0.4-0.4-0.7-0.6l0,0h0c0,0,0,0-0.1-0.1c0,0,0,0,0,0c0,0,0,0-0.1,0c0,0,0,0,0,0c0,0-0.1,0-0.1,0l0,0
				c0,0-0.1,0-0.1,0l0,0c0,0-0.1,0-0.1-0.1h0c0,0-0.1,0-0.1,0l0,0c0,0-0.1,0-0.1,0c0,0,0,0,0,0c0,0-0.1,0-0.1,0c0,0,0,0,0,0
				c0,0-0.1,0-0.1,0l0,0c0,0-0.1,0-0.1,0h0c0,0-0.1,0-0.1-0.1c0,0,0,0,0,0c0,0-0.1,0-0.1-0.1h0c0,0-0.1,0-0.1,0h0c0,0-0.1,0-0.1-0.1
				c0,0,0,0,0,0c0,0-0.1,0-0.1,0c0,0,0,0,0,0c-0.3-0.1-0.6-0.2-0.9-0.4l0,0l0,0c-0.1,0-0.1,0-0.2-0.1c0,0,0,0,0,0
				c-0.1,0-0.1,0-0.2-0.1c0,0,0,0,0,0c-0.1,0-0.1,0-0.2-0.1h0c-0.1,0-0.1,0-0.2-0.1h0c-0.1,0-0.1,0-0.2-0.1l0,0
				c-0.1,0-0.1,0-0.2-0.1c0,0,0,0,0,0c-0.1,0-0.3-0.1-0.4-0.1c0,0,0,0,0,0c-0.1,0-0.1,0-0.2-0.1c0,0,0,0,0,0c-0.1,0-0.1,0-0.2-0.1h0
				c-0.1,0-0.1,0-0.2-0.1h0c-0.1,0-0.1,0-0.2-0.1c0,0,0,0,0,0c-0.1,0-0.1,0-0.2-0.1c0,0,0,0,0,0c-0.1,0-0.3-0.1-0.4-0.1c0,0,0,0,0,0
				c-0.1,0-0.1,0-0.2-0.1c0,0,0,0,0,0c-0.1,0-0.1,0-0.2-0.1h0c-0.1,0-0.1,0-0.2-0.1l0,0c-0.1,0-0.1,0-0.2-0.1c0,0,0,0,0,0
				c-0.1,0-0.1,0-0.2-0.1c0,0,0,0,0,0c-0.1,0-0.1,0-0.2,0l0,0c-0.1,0-0.1,0-0.2,0c0,0,0,0,0,0c-0.1,0-0.1,0-0.2-0.1c0,0,0,0,0,0
				c-0.1,0-0.1,0-0.2,0c0,0,0,0,0,0c-0.1,0-0.1,0-0.2-0.1h0c-0.1,0-0.1,0-0.2,0c0,0,0,0,0,0c-0.1,0-0.1,0-0.2,0c0,0,0,0,0,0
				c-0.1,0-0.1,0-0.2,0h0c-0.1,0-0.2,0-0.2,0h0c-0.1,0-0.1,0-0.2,0c0,0,0,0,0,0c-0.1,0-0.1,0-0.2,0h0c-0.1,0-0.1,0-0.2,0
				c-0.3-0.1-0.5-0.1-0.8-0.1v-0.8c0.3,0.1,0.6,0.1,0.9,0.2c2.5,0.5,4.7,1.1,6.5,1.7c-0.4-2.8-1.2-5.4-2.4-7.7l0,0
				c-0.3-0.5-0.5-1-0.8-1.5c0,0,0,0,0,0c0,0,0,0,0-0.1c0.1,0,0.4,0,0.8,0c1.7,2.9,2.8,6.2,3.2,9.7c0.7,0.3,1.2,0.5,1.7,0.8
				c-0.3-3.7-1.4-7.2-3-10.3c0.3,0.1,0.6,0.1,0.9,0.2c0,0,0,0,0,0c0,0.1,0.1,0.2,0.1,0.3l0,0c1.5,3.2,2.5,6.7,2.7,10.4
				C143,119.4,143.1,119.6,143.2,119.8z M143.2,122.3C143.2,122.3,143.2,122.3,143.2,122.3v0.8c0,0.1-0.1,0.2-0.2,0.2
				c0.1-0.2,0-0.4-0.1-0.5c0-0.1-0.1-0.1-0.1-0.2l0,0c0,0-0.1-0.1-0.1-0.1c0,0,0,0,0,0l0,0c0,0-0.1-0.1-0.1-0.1
				c-0.2-0.1-0.3-0.2-0.5-0.4l0,0c-0.4-0.3-1-0.6-1.6-0.8l0,0c-0.1,0-0.1,0-0.2-0.1c-0.2-0.1-0.3-0.1-0.5-0.2c0,0-0.1,0-0.1,0
				c-2-0.7-4.5-1.4-6.8-1.9c-0.3,0-0.6-0.1-0.8-0.2v-0.8c0.3,0.1,0.6,0.1,0.9,0.2c0.1,0,0.2,0,0.2,0c0,0,0,0,0.1,0
				c0.1,0,0.1,0,0.2,0c0,0,0.1,0,0.1,0c0.1,0,0.1,0,0.2,0c0,0,0.1,0,0.1,0c0,0,0.1,0,0.1,0c0,0,0.1,0,0.1,0c0,0,0.1,0,0.1,0
				c0,0,0.1,0,0.1,0c0.1,0,0.1,0,0.1,0c0,0,0.1,0,0.1,0c0,0,0.1,0,0.1,0c0,0,0.1,0,0.1,0c0,0,0.1,0,0.1,0c0,0,0.1,0,0.1,0
				c0,0,0.1,0,0.1,0c0,0,0.1,0,0.1,0c0,0,0.1,0,0.1,0c0,0,0.1,0,0.1,0c0,0,0.1,0,0.1,0c0,0,0.1,0,0.1,0c0.1,0,0.1,0,0.2,0
				c0,0,0.1,0,0.1,0c0.1,0,0.1,0,0.2,0.1c0,0,0,0,0,0c0.1,0,0.1,0,0.2,0c0,0,0,0,0,0c0.1,0,0.1,0,0.2,0.1c0,0,0,0,0.1,0
				c0.1,0,0.1,0,0.1,0c0,0,0.1,0,0.1,0c0,0,0.1,0,0.1,0c0,0,0.1,0,0.1,0c0,0,0.1,0,0.1,0c0,0,0,0,0.1,0c0,0,0.1,0,0.1,0
				c0,0,0.1,0,0.1,0c0,0,0.1,0,0.1,0c0,0,0.1,0,0.1,0c0,0,0.1,0,0.1,0c0,0,0.1,0,0.1,0c0,0,0.1,0,0.1,0c0,0,0.1,0,0.1,0
				c0,0,0.1,0,0.1,0c0,0,0.1,0,0.1,0c0,0,0.1,0,0.1,0c0,0,0,0,0.1,0c0,0,0.1,0,0.1,0c0,0,0,0,0,0c0,0,0.1,0,0.2,0.1c0,0,0,0,0,0
				c0.1,0,0.2,0.1,0.4,0.1c0,0,0,0,0,0c0.1,0,0.1,0,0.2,0c0,0,0,0,0,0c0,0,0.1,0,0.1,0c0,0,0,0,0.1,0c0,0,0.1,0,0.1,0c0,0,0,0,0.1,0
				c0,0,0.1,0,0.1,0c0.3,0.1,0.6,0.2,0.8,0.3c0,0,0,0,0.1,0c0,0,0.1,0,0.1,0c0,0,0,0,0.1,0c0,0,0.1,0,0.1,0c0,0,0,0,0,0
				c0,0,0.1,0,0.1,0.1c0,0,0,0,0,0c0,0,0.1,0,0.1,0c0,0,0,0,0,0c0,0,0.1,0,0.1,0c0,0,0,0,0,0c0,0,0,0,0.1,0c0,0,0,0,0,0
				c0,0,0,0,0.1,0c0,0,0,0,0,0c0,0,0.1,0,0.1,0c0,0,0,0,0,0c0,0,0.1,0,0.1,0.1c0,0,0,0,0,0c0,0,0,0,0.1,0c0,0,0,0,0,0c0,0,0,0,0.1,0
				c0,0,0,0,0,0c0,0,0,0,0.1,0c0,0,0,0,0,0c0,0,0,0,0.1,0c0,0,0,0,0,0c0.3,0.2,0.6,0.4,0.8,0.5l0,0c0,0,0,0,0.1,0.1
				C143,122,143.1,122.1,143.2,122.3z M85.3,122.7L85.3,122.7c-0.1,0.1-0.1,0.1-0.1,0.2c-0.1,0.1-0.2,0.3-0.1,0.5
				c-0.1,0-0.2-0.1-0.2-0.2v-0.8c0,0,0,0,0,0c0-0.2,0.2-0.3,0.3-0.5c0,0,0,0,0.1-0.1l0,0c0.2-0.2,0.5-0.4,0.8-0.5c0,0,0,0,0,0
				c0,0,0,0,0.1,0c0,0,0,0,0,0c0,0,0,0,0.1,0c0,0,0,0,0,0c0,0,0,0,0.1,0c0,0,0,0,0,0c0,0,0.1,0,0.1,0c0,0,0,0,0,0c0,0,0.1,0,0.1,0
				c0,0,0,0,0,0c0.1,0,0.1-0.1,0.2-0.1c0,0,0,0,0,0c0,0,0.1,0,0.1,0c0,0,0,0,0,0c0,0,0.1,0,0.1,0c0,0,0,0,0,0c0,0,0.1,0,0.1,0
				c0,0,0,0,0,0c0,0,0.1,0,0.1,0c0,0,0,0,0,0c0.1,0,0.2-0.1,0.3-0.1c0,0,0,0,0,0c0.3-0.1,0.6-0.2,0.9-0.3c0,0,0.1,0,0.1,0
				c0,0,0,0,0.1,0c0,0,0.1,0,0.1,0c0,0,0,0,0.1,0c0,0,0.1,0,0.2-0.1l0,0c0.1,0,0.1,0,0.2-0.1c0,0,0,0,0,0c0,0,0.1,0,0.1-0.1
				c0,0,0,0,0.1,0c0,0,0.1,0,0.1,0c0,0,0,0,0.1,0c0,0,0.1,0,0.1,0c0,0,0.1,0,0.1,0c0,0,0.1,0,0.1,0c0,0,0.1,0,0.1,0c0,0,0.1,0,0.1,0
				c0,0,0.1,0,0.1,0c0,0,0.1,0,0.1,0c0,0,0.1,0,0.1,0c0,0,0.1,0,0.1,0c0,0,0.1,0,0.1,0c0,0,0.1,0,0.1,0c0,0,0.1,0,0.1,0
				c0,0,0.1,0,0.1,0c0,0,0.1,0,0.1,0c0,0,0.1,0,0.1,0c0,0,0.1,0,0.1,0c0,0,0.1,0,0.1,0c0,0,0.1,0,0.1,0c0,0,0.1,0,0.1,0
				c0,0,0,0,0.1,0c0.1,0,0.1,0,0.2,0c0,0,0,0,0,0c0.1,0,0.1,0,0.2-0.1c0,0,0,0,0,0c0.1,0,0.1,0,0.2,0c0,0,0,0,0.1,0c0,0,0.1,0,0.1,0
				c0,0,0.1,0,0.1,0c0.1,0,0.1,0,0.1,0c0,0,0.1,0,0.1,0c0,0,0.1,0,0.1,0c0,0,0.1,0,0.1,0c0,0,0.1,0,0.1,0c0,0,0.1,0,0.1,0
				c0,0,0.1,0,0.1,0c0,0,0.1,0,0.1,0c0,0,0.1,0,0.1,0c0,0,0.1,0,0.1,0c0,0,0.1,0,0.1,0c0,0,0.1,0,0.1,0c0,0,0.1,0,0.1,0
				c0,0,0.1,0,0.1,0c0,0,0.1,0,0.1,0c0,0,0.1,0,0.1,0c0,0,0.1,0,0.1,0c0,0,0.1,0,0.1,0c0.1,0,0.1,0,0.1,0c0,0,0.1,0,0.1,0
				c0,0,0.1,0,0.2,0c0,0,0.1,0,0.1,0c0.1,0,0.2,0,0.2,0c0.3-0.1,0.6-0.1,1-0.2l0,0l0,0v0.8c-0.3,0.1-0.6,0.1-0.8,0.2
				c-2.4,0.5-4.9,1.1-6.8,1.9l0,0c-0.2,0.1-0.5,0.2-0.7,0.3l0,0c-0.6,0.3-1.2,0.5-1.6,0.8l0,0c-0.2,0.2-0.4,0.3-0.6,0.5l0,0
				C85.4,122.6,85.3,122.7,85.3,122.7z M89.9,137.1c-0.1,0.1-0.2,0.2,0.1,0.4c-0.1,0-0.3-0.1-0.3-0.2c-0.1-0.1-0.3-0.5-0.3-0.5
				c0,0,0,0,0,0c0-0.1,0.1-0.2,0.2-0.3c0,0,0,0,0,0c0,0,0,0,0,0c0.1-0.2,0.3-0.3,0.6-0.5c0,0,0,0,0.1,0c0,0,0,0,0,0c0,0,0,0,0.1,0
				c0,0,0,0,0,0c0,0,0.1-0.1,0.1-0.1h0c0,0,0,0,0.1,0l0,0c0,0,0,0,0.1,0l0,0c0.1,0,0.1-0.1,0.2-0.1c0,0,0,0,0,0c0,0,0.1,0,0.1,0
				c0,0,0,0,0,0c0.1-0.1,0.2-0.1,0.4-0.2l0,0c0.1,0,0.2-0.1,0.3-0.2l0,0c0.2-0.1,0.4-0.2,0.7-0.3c0.1,0,0.2-0.1,0.3-0.1l0,0
				c0,0,0.1,0,0.1,0c0,0,0,0,0,0c0.1,0,0.2-0.1,0.3-0.1h0c0,0,0.1,0,0.1,0c0,0,0,0,0,0c0.1,0,0.2-0.1,0.3-0.1c0,0,0,0,0,0
				c0,0,0.1,0,0.1,0c0,0,0,0,0,0c0.1,0,0.2-0.1,0.3-0.1c0,0,0,0,0,0c0,0,0.1,0,0.1,0c0,0,0,0,0,0c0.1,0,0.2-0.1,0.3-0.1c0,0,0,0,0,0
				c0,0,0.1,0,0.1,0c0,0,0,0,0.1,0c0.1,0,0.1,0,0.2-0.1c1.1-0.3,2.3-0.6,3.4-0.9c0.1,0.2,0.3,0.5,0.4,0.7c-1.3,0.2-2.4,0.5-3.6,0.9
				C93.1,135.2,90.6,136.2,89.9,137.1z M88.7,135.3c-0.1,0-0.2-0.1-0.2-0.1c0-0.1-0.3-0.6-0.3-0.6c0,0,0,0,0,0
				c0-0.1,0.1-0.3,0.2-0.4c-1.7-3.4-2.7-7.1-3-11c0.2-0.1,0.5-0.2,0.7-0.3c0.2,3.9,1.2,7.5,2.8,10.8c0.4-0.3,0.9-0.5,1.4-0.8
				c-1.6-3.2-2.5-6.7-2.7-10.4c0.3,0,0.6,0,0.7,0c0.2,3.6,1.1,7,2.6,10.1c0.9-0.4,2-0.7,3.1-1c1-0.3,2-0.5,3-0.8
				c0.1,0.2,0.2,0.5,0.3,0.7c-1.1,0.2-2.1,0.5-3.1,0.8c-0.1,0-0.1,0-0.2,0c0,0,0,0,0,0c-0.1,0-0.1,0-0.2,0.1c0,0,0,0,0,0
				c-0.1,0-0.1,0-0.2,0c0,0,0,0,0,0c-0.1,0-0.1,0-0.2,0c0,0,0,0,0,0c-0.1,0-0.2,0.1-0.3,0.1c0,0,0,0,0,0c-0.1,0-0.1,0-0.2,0.1
				c0,0,0,0,0,0c-0.1,0-0.1,0-0.2,0.1h0c-0.1,0-0.1,0-0.2,0.1l0,0c-0.1,0-0.2,0.1-0.4,0.1h0c-0.3,0.1-0.6,0.2-0.9,0.3l0,0l0,0
				c-0.2,0.1-0.5,0.2-0.7,0.3l0,0l0,0c0,0-0.1,0-0.1,0h0c0,0-0.1,0-0.1,0l0,0c0,0-0.1,0-0.1,0.1l0,0c-0.2,0.1-0.3,0.2-0.5,0.2l0,0
				c0,0-0.1,0-0.1,0.1c0,0,0,0,0,0c0,0-0.1,0-0.1,0h0c0,0-0.1,0-0.1,0l0,0c-0.1,0.1-0.3,0.2-0.4,0.2l0,0l0,0
				c-0.3,0.2-0.5,0.4-0.6,0.5c0,0,0,0,0,0c0,0,0,0,0,0h0l0,0c0,0.1-0.1,0.2-0.1,0.2C88.6,135.2,88.6,135.3,88.7,135.3z M112.1,149.9
				L112.1,149.9c-9.1-0.6-17-5.4-21.9-12.5c0-0.1-0.1-0.1-0.1-0.2c0,0,0,0,0,0c0.2-0.1,0.5-0.2,0.7-0.3c4.7,6.9,12.4,11.6,21.2,12.2
				L112.1,149.9z M113.2,150v0.2v0.2c0,0,0,0.1-0.1,0.1h-0.6c0,0-0.1,0-0.1-0.1v-0.4v-0.7v-1.6v-5c0.3,0,0.5,0,0.8,0.1v4.2v0.7v1.6
				V150z"/>
			<path fill="#FFF500" d="M91.8,104.2c4.7-6.2,12-10.3,20.3-10.9l-0.2,1.7c-5.4,0.5-10.3,2.5-14.3,5.7H96v1.3
				c-0.5,0.4-0.9,0.9-1.4,1.4C93.6,103.6,92.6,103.9,91.8,104.2z M139,108.4c-0.8-0.1-1.4-0.2-1.9-0.2c1.7,2.9,2.8,6.2,3.2,9.7
				c0.7,0.3,1.2,0.5,1.7,0.8C141.6,115,140.6,111.6,139,108.4z M115.6,94.9c5.7,0.3,10.8,2.5,15,5.8h1.4v1.2
				c0.5,0.4,0.9,0.9,1.3,1.4c1.1,0.3,2.1,0.6,2.9,0.9c-4.8-6.3-12.2-10.4-20.6-10.9V94.9z M92.6,136.7c-0.5,0-1.1,0.1-1.8,0.3
				c4.7,6.9,12.4,11.6,21.2,12.2l-0.3-1.7C103.9,146.9,97,142.7,92.6,136.7z M115.7,147.6v1.6c8.3-0.5,15.6-4.5,20.4-10.6
				c-0.3-0.2-0.8-0.5-1.5-0.8C130.1,143.4,123.3,147.1,115.7,147.6z M90.3,132.9c-1.6-3.2-2.5-6.7-2.7-10.4c-0.4,0-1,0.1-1.6,0.3
				c0.2,3.9,1.2,7.5,2.8,10.8C89.3,133.4,89.8,133.1,90.3,132.9z M138.2,131.8c0.5,0.5,0.9,0.9,1.2,1.3c1.5-3.2,2.4-6.7,2.6-10.4
				c-0.6-0.2-1.1-0.3-1.6-0.3C140.2,125.8,139.5,128.9,138.2,131.8z M87.8,117.9c0.3-2.4,0.9-4.7,1.8-6.9c-0.5-0.4-1-0.7-1.4-0.9
				c-1.2,2.7-1.9,5.6-2.2,8.6C86.6,118.5,87.2,118.2,87.8,117.9z"/>
			<g>
				<path fill="#FFF500" d="M138.5,106c-1.3-0.9-3.9-1.7-6.5-2.2v1.6c3.2,0.7,6,1.5,7.3,2.1L138.5,106z"/>
				<path fill="#FFF500" d="M94.7,105.5c0.4-0.1,0.9-0.2,1.3-0.3v-1.5c-1.4,0.3-2.7,0.7-3.8,1C92.9,105,93.8,105.2,94.7,105.5z"/>
				<g>
					<g>
						<path fill-rule="evenodd" clip-rule="evenodd" fill="#FFF500" d="M96,116.5c-0.3,0.1-0.5,0.1-0.8,0.2
							c-4.1,0.8-8.6,2.2-9.9,3.5c0,0-0.1,0.1-0.1,0.1v1.5c1.1-1.1,5.1-2.5,9.9-3.5c0.3-0.1,0.6-0.1,1-0.2V116.5z"/>
						<path fill-rule="evenodd" clip-rule="evenodd" fill="#FFF500" d="M142.7,120.2c-1.3-1.3-5.8-2.8-9.9-3.5
							c-0.3-0.1-0.5-0.1-0.8-0.1v1.7c0.3,0.1,0.6,0.1,0.9,0.2c4.8,1,8.7,2.3,9.9,3.5v-1.5C142.8,120.3,142.8,120.2,142.7,120.2z"/>
					</g>
					<path fill-rule="evenodd" clip-rule="evenodd" fill="#FFF500" d="M97.4,131.5c-1.1,0.2-2.1,0.5-3.1,0.8
						c-2.4,0.7-5.1,1.8-5.6,2.6c0,0,0,0,0,0l0.9,1.4c0.5-0.7,2.4-1.6,5.2-2.5c1.1-0.3,2.3-0.6,3.4-0.9
						C97.9,132.6,97.6,132,97.4,131.5z"/>
					<g>
						<rect x="113.2" y="92.3" fill-rule="evenodd" clip-rule="evenodd" fill="#FFF500" width="1.7" height="8.3"/>
						<path fill-rule="evenodd" clip-rule="evenodd" fill="#FFF500" d="M114,142.7c-0.3,0-0.5,0-0.8,0v7.6h1.7v-7.6
							C114.6,142.7,114.3,142.7,114,142.7z"/>
					</g>
					<g>
						<path fill-rule="evenodd" clip-rule="evenodd" fill="#FFF500" d="M139.2,134.3c-1.1-1.7-4-4.2-7.4-6.8c-0.2,1.5-0.7,3-1.3,4.3
							c3.8,2.8,6.5,5.2,6.8,6.3l2.1-3.3C139.5,134.8,139.4,134.6,139.2,134.3z"/>
						<path fill-rule="evenodd" clip-rule="evenodd" fill="#FFF500" d="M96,106.9c-2.5-1-4.4-1.5-5.5-1.6h-0.1c-0.3,0-0.5,0-0.7,0.1
							l-1.8,3.5c0.1,0,0.1,0,0.2,0c1.4,0,4.2,0.9,7.8,2.6L96,106.9z"/>
					</g>
				</g>
			</g>
			<path d="M132,107.8v3.3c2-0.4,3.7-0.8,5-1.2c-0.3-0.6-0.6-1.1-0.9-1.6c0.4,0,1.9-0.1,3.7,0.4c0,0,0,0,0,0c0,0.1,0.1,0.2,0.1,0.3
				c0,0,0,0,0.1,0c0,0,0,0,0.1,0c0.1,0,0.2-0.2-0.1-0.3c-0.1,0-0.2-0.1-0.2-0.1l0,0c-1-0.5-2.5-1-4.5-1.5c0,0,0.1,0.1,0.1,0.1
				C134.4,107.2,133.3,107.6,132,107.8z M143,120.8c0.1-0.1,0-0.3-0.2-0.4v0.5C142.9,120.8,143,120.8,143,120.8
				C143,120.8,143,120.8,143,120.8z M139,106.6c0.1-0.1,0.1-0.2-0.2-0.4c-0.1-0.1-0.2-0.2-0.3-0.2l0.4,0.6
				C138.9,106.6,138.9,106.6,139,106.6z M139,135.7C139,135.7,139.1,135.7,139,135.7c0.1,0,0.2,0,0.3,0c0.1-0.1,0.3-0.3,0.2-0.8
				L139,135.7z M143,123L143,123C143,123,143,123,143,123C143,123,143,123,143,123C143,123,143,123,143,123L143,123
				C143,123,143,123,143,123L143,123L143,123L143,123L143,123L143,123L143,123L143,123L143,123L143,123
				C142.9,122.9,142.9,122.9,143,123L143,123L143,123c-0.1-0.1-0.1-0.1-0.1-0.1c0,0,0,0,0,0l0,0h0c0,0,0,0,0,0c0,0,0,0,0,0l0,0
				c0,0-0.1-0.1-0.1-0.1c-0.1-0.1-0.1-0.1-0.2-0.2c-0.5-0.4-1.3-0.9-2.3-1.3c-0.2-0.1-0.4-0.2-0.6-0.2c0,0.1,0,0.1,0,0.2
				c0,0,0,0.1,0,0.1c-2.6,0.8-5.7,1.4-7.7,1.7v1.6c0,0.5,0,1-0.1,1.5c2.9-0.5,5.5-1,7.5-1.6c0.1-0.7,0.2-1.4,0.2-2.1
				c0.5,0,1.8,0,3.1,0.6c0,0.1,0,0.3,0,0.4c0.1-0.1,0.2-0.1,0.3-0.2C143.1,123.2,143,123.1,143,123C143,123,143,123,143,123z
				 M136.8,138.9L136.8,138.9C136.8,138.9,136.8,138.9,136.8,138.9L136.8,138.9c0-0.1,0-0.1,0-0.1l0,0c0-0.1-0.1-0.1-0.1-0.2
				c-0.2-0.5-0.9-1.3-2-2.2c0,0,0,0,0,0c0,0,0,0,0,0v0c-1.1-1-2.6-2.3-4.5-3.7c-0.9,1.8-2,3.4-3.4,4.8c-1.6,1.6-3.5,2.9-5.7,3.8
				c2.8-0.2,5.4-0.6,7.5-1c0.8-0.1,2-0.4,3.5-0.7c0.6-0.6,1.2-1.2,1.7-1.9c1.6,0.4,2.5,1.2,2.8,1.5c-0.1,0.2-0.3,0.3-0.4,0.5
				c0.1,0,0.1,0,0.2,0c0.1,0,0.1,0,0.2,0C136.6,139.5,137,139.5,136.8,138.9C136.8,138.9,136.8,138.9,136.8,138.9z"/>
			<path d="M89.3,106.3c0-0.1-0.1-0.2-0.1-0.3c0-0.2,0.2-0.5,0.6-0.6L89.3,106.3z M85.2,120.8v-0.5c-0.1,0.2-0.3,0.3-0.2,0.4
				C85.1,120.8,85.1,120.8,85.2,120.8z M112.4,92.5c-0.1,0-0.2,0-0.3,0l-0.5,3.2c0.3,0,0.5-0.1,0.8-0.1V92.5z M87.3,110.6
				c0.1-0.3,0.2-0.5,0.3-0.8c0.4,0.1,1.7,0.5,2.6,1.7c-0.2,0.5-0.4,1-0.6,1.6c1,0.9,2.3,1.9,3.9,3c0.5-0.1,1-0.2,1.5-0.3
				c0.3-0.1,0.6-0.1,1-0.2v-3.5c-1.9-0.9-3.6-1.5-5-2c0,0,0,0,0,0c0,0,0,0-0.1,0c0,0,0,0-0.1,0c0,0,0,0,0,0
				c-1.3-0.4-2.2-0.6-2.9-0.6c-0.1,0-0.2,0-0.3,0c0,0,0,0,0,0l0,0c0,0,0,0,0,0h0c0,0,0,0,0,0l0,0v0c-0.2,0.1-0.4,0.2-0.5,0.6
				c0,0,0-0.1,0-0.1c0,0,0,0.1,0,0.1C87.2,110.3,87.2,110.5,87.3,110.6z M96,124.7v-1.6c-1.9-0.3-5.1-0.9-7.7-1.7c0,0,0-0.1,0-0.1
				c0-0.1,0-0.1,0-0.2c-0.3,0.1-0.6,0.2-0.8,0.3c-0.2,0.1-0.5,0.2-0.7,0.3c0,0,0,0,0,0c0,0,0,0,0,0c-0.6,0.3-1.1,0.6-1.4,0.9
				c-0.1,0-0.1,0.1-0.1,0.1c0,0-0.1,0.1-0.1,0.1l0,0c0,0,0,0,0,0l0,0l0,0h0l0,0l0,0c0,0,0,0,0,0h0c0,0,0,0,0,0l0,0v0v0h0h0v0
				c0,0,0,0,0,0l0,0h0v0c0,0,0,0,0,0v0c0,0,0,0,0,0h0v0h0v0c0,0,0,0,0,0l0,0c0,0,0,0,0,0l0,0l0,0v0v0l0,0c0,0,0,0,0,0l0,0
				c0,0,0,0,0,0l0,0v0h0v0c0,0,0,0,0,0v0c0,0,0,0,0,0l0,0v0v0l0,0c0,0,0,0,0,0l0,0v0c0,0,0,0,0,0l0,0v0c0,0,0,0,0,0h0l0,0v0l0,0h0
				c0,0,0,0,0,0l0,0c0,0,0,0,0,0c0.1,0.1,0.2,0.1,0.3,0.2c0-0.1,0-0.3,0-0.4c1.3-0.6,2.5-0.6,3.1-0.6c0,0.7,0.1,1.4,0.2,2.1
				c2,0.5,4.6,1.1,7.5,1.6C96.1,125.7,96,125.2,96,124.7z M112.1,149.9c0.1,0,0.2,0,0.3,0v-3.1c-0.3,0-0.5,0-0.8-0.1L112.1,149.9z
				 M101.3,137.3c-0.1-0.1-0.1-0.1-0.2-0.2c-2.7-0.4-5.5-0.9-8.4-1.6c0,0-0.1-0.1-0.1-0.1c-1.3,0.5-2.3,1.1-2.8,1.6
				c-0.1,0.1-0.2,0.2,0.1,0.4c0,0,0,0,0,0c0.1,0.1,0.3,0.1,0.4,0.2c-0.1-0.1-0.2-0.3-0.3-0.4c1.6-0.7,3.1-0.6,3.4-0.5
				c0.7,0.9,1.4,1.8,2.2,2.6c3.1,0.8,6.9,1.4,11,1.8C104.8,140.2,102.9,138.9,101.3,137.3z M88.6,134.9c0,0.1-0.1,0.2-0.1,0.2
				c0,0.1,0,0.1,0.1,0.1c0,0,0,0-0.1,0c0.1,0,0.2,0,0.2,0L88.6,134.9z"/>
			<g>
				<g>
					<path fill="#FFFFFF" d="M113.9,142.9c-10.9,0-18.2-9.2-18.2-17.8v-24.5h36.4v24.5C132.1,133.7,124.8,142.9,113.9,142.9
						L113.9,142.9z"/>
					<path fill="#E61E1E" d="M97,101.8v23.3c0,8,6.8,16.6,17,16.6c10.2,0,17-8.6,17-16.6v-23.3H97z M124,125.1
						c0,4.2-3.8,9.7-10.1,9.7c-6.3,0-10.1-5.6-10.1-9.7c0-2.4,0-16.4,0-16.4H124C124,108.7,124,122.7,124,125.1z"/>
				</g>
				<g>
					<path fill-rule="evenodd" clip-rule="evenodd" fill="#FFF500" d="M102.7,107.1L102.7,107.1l-0.2-1.5c0.2,0,0.4-0.2,0.4-0.4
						c0-0.2-0.2-0.4-0.4-0.4h0l0-0.7h0h0.1c0,0,0.1,0,0.1-0.1v-0.5h-0.2v0.2h-0.3v-0.2h-0.3v0.2h-0.3v-0.2h-0.2v0.5
						c0,0,0,0.1,0.1,0.1h0.1h0l0,0.7H101l-0.1-1.5h0.1c0,0,0.1,0,0.1-0.1v-0.5h-0.2v0.2h-0.3v-0.2h-0.2v0.2h-0.3v-0.2h-0.2v0.5
						c0,0,0,0.1,0.1,0.1h0.1l-0.1,1.5h-0.4l0-0.7h0h0.1c0,0,0.1,0,0.1-0.1v-0.5h-0.2v0.2h-0.3v-0.2h-0.2v0.2h-0.3v-0.2h-0.2v0.5
						c0,0,0,0.1,0.1,0.1h0.1h0l0,0.7h0c-0.2,0-0.4,0.2-0.4,0.4c0,0.2,0.2,0.4,0.4,0.4l-0.1,1.6h-0.1c-0.2,0-0.4,0.2-0.4,0.4
						c0,0.2,0.2,0.4,0.4,0.4h4.4c0.2,0,0.4-0.2,0.4-0.4C103.1,107.3,102.9,107.1,102.7,107.1z M99.5,107.1c0-1.3,1-1.6,1-1.6l0,0
						c0,0,1,0.3,1,1.6H99.5z"/>
					<path fill-rule="evenodd" clip-rule="evenodd" fill="#FFF500" d="M116.2,107.1L116.2,107.1l-0.2-1.5c0.2,0,0.4-0.2,0.4-0.4
						c0-0.2-0.2-0.4-0.4-0.4h-0.1l0-0.7h0h0.1c0,0,0.1,0,0.1-0.1v-0.5h-0.2v0.2h-0.3v-0.2h-0.2v0.2H115v-0.2h-0.2v0.5
						c0,0,0,0.1,0.1,0.1h0.1h0.1l0,0.7h-0.4l-0.1-1.5h0.1c0,0,0.1,0,0.1-0.1v-0.5h-0.2v0.2h-0.3v-0.2h-0.2v0.2h-0.3v-0.2h-0.2v0.5
						c0,0,0,0.1,0.1,0.1h0.1l-0.1,1.5H113l-0.1-0.7h0h0.1c0,0,0.1,0,0.1-0.1v-0.5H113v0.2h-0.3v-0.2h-0.2v0.2h-0.3v-0.2h-0.2v0.5
						c0,0,0,0.1,0.1,0.1h0.1h0l0,0.7h0c-0.2,0-0.4,0.2-0.4,0.4c0,0.2,0.2,0.4,0.4,0.4l-0.2,1.6h-0.1c-0.2,0-0.4,0.2-0.4,0.4
						c0,0.2,0.2,0.4,0.4,0.4h4.4c0.2,0,0.4-0.2,0.4-0.4C116.6,107.3,116.4,107.1,116.2,107.1z M113,107.1c0.1-1.3,1-1.6,1-1.6l0,0
						c0,0,1,0.3,1.1,1.6H113z"/>
					<path fill-rule="evenodd" clip-rule="evenodd" fill="#FFF500" d="M129.6,107.1L129.6,107.1l-0.2-1.5c0.2,0,0.4-0.2,0.4-0.4
						c0-0.2-0.2-0.4-0.4-0.4h0l0-0.7h0h0.1c0,0,0.1,0,0.1-0.1v-0.5h-0.2v0.2h-0.3v-0.2h-0.2v0.2h-0.3v-0.2h-0.2v0.5
						c0,0,0,0.1,0.1,0.1h0.1h0l0,0.7h-0.4l-0.1-1.5h0.1c0,0,0.1,0,0.1-0.1v-0.5h-0.2v0.2h-0.3v-0.2h-0.2v0.2h-0.3v-0.2h-0.2v0.5
						c0,0,0,0.1,0.1,0.1h0.1l-0.1,1.5h-0.4l0-0.7h0h0.1c0,0,0.1,0,0.1-0.1v-0.5h-0.2v0.2H126v-0.2h-0.2v0.2h-0.3v-0.2h-0.2v0.5
						c0,0,0,0.1,0.1,0.1h0.1h0l0,0.7h0c-0.2,0-0.4,0.2-0.4,0.4c0,0.2,0.1,0.4,0.3,0.4l-0.1,1.6h-0.1c-0.2,0-0.4,0.2-0.4,0.4
						c0,0.2,0.2,0.4,0.4,0.4h4.4c0.2,0,0.4-0.2,0.4-0.4C130,107.3,129.8,107.1,129.6,107.1z M126.3,107.1c0-1.3,1-1.6,1-1.6h0
						c0,0,1,0.3,1,1.6H126.3z"/>
					<path fill-rule="evenodd" clip-rule="evenodd" fill="#FFF500" d="M102.7,121L102.7,121l-0.2-1.6c0.2,0,0.4-0.2,0.4-0.4
						c0-0.2-0.2-0.4-0.4-0.4h0l0-0.7h0h0.1c0,0,0.1,0,0.1-0.1v-0.5h-0.2v0.2h-0.3v-0.2h-0.3v0.2h-0.3v-0.2h-0.2v0.5
						c0,0,0,0.1,0.1,0.1h0.1h0l0,0.7H101l-0.1-1.5h0.1c0,0,0.1,0,0.1-0.1v-0.5h-0.2v0.2h-0.3v-0.2h-0.2v0.2h-0.3v-0.2h-0.2v0.5
						c0,0,0,0.1,0.1,0.1h0.1l-0.1,1.5h-0.4l0-0.7h0h0.1c0,0,0.1,0,0.1-0.1v-0.5h-0.2v0.2h-0.3v-0.2h-0.2v0.2h-0.3v-0.2h-0.2v0.5
						c0,0,0,0.1,0.1,0.1h0.1h0l0,0.7h0c-0.2,0-0.4,0.2-0.4,0.4c0,0.2,0.2,0.3,0.4,0.4l-0.1,1.6h-0.1c-0.2,0-0.4,0.2-0.4,0.4
						c0,0.2,0.2,0.4,0.4,0.4h4.4c0.2,0,0.4-0.2,0.4-0.4C103.1,121.2,102.9,121,102.7,121z M99.5,121c0-1.3,1-1.6,1-1.6l0,0
						c0,0,1,0.3,1,1.6H99.5z"/>
					<path fill-rule="evenodd" clip-rule="evenodd" fill="#FFF500" d="M129.6,121L129.6,121l-0.2-1.6c0.2,0,0.4-0.2,0.4-0.4
						c0-0.2-0.2-0.4-0.4-0.4h0l0-0.7h0h0.1c0,0,0.1,0,0.1-0.1v-0.5h-0.2v0.2h-0.3v-0.2h-0.2v0.2h-0.3v-0.2h-0.2v0.5
						c0,0,0,0.1,0.1,0.1h0.1h0l0,0.7h-0.4l-0.1-1.5h0.1c0,0,0.1,0,0.1-0.1v-0.5h-0.2v0.2h-0.3v-0.2h-0.2v0.2h-0.3v-0.2h-0.2v0.5
						c0,0,0,0.1,0.1,0.1h0.1l-0.1,1.5h-0.4l0-0.7h0h0.1c0,0,0.1,0,0.1-0.1v-0.5h-0.2v0.2H126v-0.2h-0.2v0.2h-0.3v-0.2h-0.2v0.5
						c0,0,0,0.1,0.1,0.1h0.1h0l0,0.7h0c-0.2,0-0.4,0.2-0.4,0.4c0,0.2,0.1,0.3,0.3,0.4l-0.1,1.6h-0.1c-0.2,0-0.4,0.2-0.4,0.4
						c0,0.2,0.2,0.4,0.4,0.4h4.4c0.2,0,0.4-0.2,0.4-0.4C130,121.2,129.8,121,129.6,121z M126.3,121c0-1.3,1-1.6,1-1.6h0
						c0,0,1,0.3,1,1.6H126.3z"/>
					<path fill-rule="evenodd" clip-rule="evenodd" fill="#FFF500" d="M106.6,133.2L106.6,133.2l-1.2-0.9c0.1-0.2,0.1-0.4,0-0.5
						c-0.2-0.1-0.4-0.1-0.5,0l0,0l-0.5-0.5l0,0l0.1-0.1c0,0,0-0.1,0-0.1l-0.3-0.3l-0.2,0.2l0.2,0.2l-0.2,0.2l-0.2-0.2l-0.2,0.2
						l0.2,0.2l-0.2,0.2l-0.1-0.2l-0.2,0.2l0.3,0.3c0,0,0.1,0,0.1,0l0.1-0.1l0,0l0.5,0.5l-0.3,0.3l-1.1-1l0.1-0.1c0,0,0-0.1,0-0.1
						l-0.3-0.3l-0.2,0.2l0.2,0.2l-0.2,0.2l-0.2-0.2l-0.2,0.2l0.2,0.2l-0.2,0.2l-0.2-0.2l-0.2,0.2l0.3,0.3c0,0,0.1,0,0.1,0l0.1-0.1
						l1,1.1l-0.3,0.3l-0.5-0.4l0,0l0.1-0.1c0,0,0-0.1,0-0.1l-0.4-0.3l-0.2,0.2l0.2,0.2l-0.2,0.2l-0.2-0.2l-0.2,0.2l0.2,0.2l-0.2,0.2
						l-0.2-0.2l-0.2,0.2l0.3,0.3c0,0,0.1,0,0.1,0l0.1-0.1l0,0l0.5,0.5l0,0c-0.2,0.2-0.2,0.4,0,0.5c0.1,0.1,0.4,0.1,0.5,0l1,1.2
						l-0.1,0.1c-0.2,0.1-0.2,0.4,0,0.5c0.2,0.2,0.4,0.2,0.6,0l3.1-3.1c0.1-0.2,0.1-0.4,0-0.5C107,133,106.8,133,106.6,133.2z
						 M104.3,135.5c-0.9-1-0.4-1.9-0.4-1.9l0,0c0,0,0.9-0.5,1.9,0.4L104.3,135.5z"/>
					<path fill-rule="evenodd" clip-rule="evenodd" fill="#FFF500" d="M120.9,133.2c-0.1,0.1-0.1,0.4,0,0.5l3.1,3.1
						c0.1,0.2,0.4,0.2,0.6,0c0.1-0.2,0.1-0.4,0-0.5l-0.1-0.1l1-1.2c0.2,0.1,0.4,0.1,0.5,0c0.2-0.1,0.2-0.4,0-0.5l0,0l0.4-0.5l0,0
						l0.1,0.1c0,0,0.1,0,0.1,0l0.3-0.3l-0.2-0.2l-0.2,0.2l-0.2-0.2l0.2-0.2l-0.2-0.2l-0.2,0.2l-0.2-0.2l0.2-0.2l-0.2-0.2l-0.3,0.3
						c0,0,0,0.1,0,0.1l0.1,0.1l0,0l-0.5,0.4l-0.3-0.3l1-1.1l0.1,0.1c0,0,0.1,0,0.1,0l0.3-0.3l-0.2-0.2l-0.2,0.2l-0.2-0.2l0.2-0.2
						l-0.2-0.2l-0.2,0.2l-0.2-0.2l0.2-0.2l-0.2-0.2l-0.3,0.3c0,0,0,0.1,0,0.1l0.1,0.1l-1.1,1l-0.3-0.3l0.5-0.5l0,0l0.1,0.1
						c0,0,0.1,0,0.1,0l0.4-0.3l-0.2-0.2l-0.2,0.2l-0.2-0.2l0.2-0.2l-0.2-0.2l-0.2,0.2l-0.2-0.2l0.2-0.2l-0.2-0.2l-0.3,0.3
						c0,0,0,0.1,0,0.1l0.1,0.1l0,0l-0.5,0.5l0,0c-0.2-0.1-0.4-0.1-0.6,0c-0.1,0.2-0.1,0.4,0,0.5l-1.2,1l0-0.1
						C121.3,133,121.1,133,120.9,133.2z M122.3,134c1-0.9,1.9-0.4,1.9-0.4l0,0c0,0,0.5,0.9-0.4,1.9L122.3,134z"/>
				</g>
				<g>
					<path fill-rule="evenodd" clip-rule="evenodd" fill="#FFFFFF" d="M115.2,129.7c-0.2,0-0.4,0.2-0.4,0.4c0,0.3,0.2,0.5,0.4,0.5
						c0.2,0,0.4-0.2,0.4-0.5C115.6,129.9,115.4,129.7,115.2,129.7"/>
					<path fill-rule="evenodd" clip-rule="evenodd" fill="#FFFFFF" d="M112.8,129.7c-0.2,0-0.4,0.2-0.4,0.4c0,0.2,0.2,0.4,0.4,0.4
						c0.3,0,0.5-0.2,0.5-0.4C113.2,129.9,113,129.7,112.8,129.7"/>
					<g>
						<path fill="#004682" d="M113.9,116.7c1,0,2.2-0.8,2.2-2.4c0-1.8,0-3.2,0-3.2h-4.5c0,0,0,1.4,0,3.2
							C111.7,115.9,113,116.7,113.9,116.7z"/>
						<g>
							<path fill-rule="evenodd" clip-rule="evenodd" fill="#FFFFFF" d="M113.3,112.4c0-0.3-0.2-0.5-0.5-0.5c-0.3,0-0.5,0.2-0.5,0.5
								c0,0.3,0.2,0.5,0.5,0.5C113.1,112.9,113.3,112.7,113.3,112.4z"/>
							<path fill-rule="evenodd" clip-rule="evenodd" fill="#FFFFFF" d="M114.5,113.6c0-0.3-0.2-0.5-0.5-0.5c-0.3,0-0.5,0.2-0.5,0.5
								c0,0.3,0.2,0.5,0.5,0.5C114.2,114.1,114.5,113.8,114.5,113.6z"/>
							<path fill-rule="evenodd" clip-rule="evenodd" fill="#FFFFFF" d="M115.6,114.7c0-0.3-0.2-0.5-0.5-0.5c-0.3,0-0.5,0.2-0.5,0.5
								c0,0.3,0.2,0.5,0.5,0.5C115.4,115.2,115.6,115,115.6,114.7z"/>
							<path fill-rule="evenodd" clip-rule="evenodd" fill="#FFFFFF" d="M115.1,112.9c0.3,0,0.5-0.2,0.5-0.5c0-0.3-0.2-0.5-0.5-0.5
								c-0.3,0-0.5,0.2-0.5,0.5C114.6,112.7,114.8,112.9,115.1,112.9z"/>
							<path fill-rule="evenodd" clip-rule="evenodd" fill="#FFFFFF" d="M112.8,115.2c0.3,0,0.5-0.2,0.5-0.5c0-0.3-0.2-0.5-0.5-0.5
								c-0.3,0-0.5,0.2-0.5,0.5C112.3,115,112.5,115.2,112.8,115.2z"/>
						</g>
					</g>
					<g>
						<path fill="#004682" d="M113.9,124.5c1,0,2.2-0.8,2.2-2.4c0-1.8,0-3.2,0-3.2h-4.5c0,0,0,1.4,0,3.2
							C111.7,123.7,113,124.5,113.9,124.5z"/>
						<g>
							<path fill-rule="evenodd" clip-rule="evenodd" fill="#FFFFFF" d="M113.3,120.1c0-0.3-0.2-0.5-0.5-0.5c-0.3,0-0.5,0.2-0.5,0.5
								c0,0.3,0.2,0.5,0.5,0.5C113.1,120.6,113.3,120.4,113.3,120.1z"/>
							<path fill-rule="evenodd" clip-rule="evenodd" fill="#FFFFFF" d="M114.5,121.3c0-0.3-0.2-0.5-0.5-0.5c-0.3,0-0.5,0.2-0.5,0.5
								c0,0.3,0.2,0.5,0.5,0.5C114.2,121.8,114.5,121.6,114.5,121.3z"/>
							<path fill-rule="evenodd" clip-rule="evenodd" fill="#FFFFFF" d="M115.6,122.4c0-0.3-0.2-0.5-0.5-0.5c-0.3,0-0.5,0.2-0.5,0.5
								c0,0.3,0.2,0.5,0.5,0.5C115.4,122.9,115.6,122.7,115.6,122.4z"/>
							<path fill-rule="evenodd" clip-rule="evenodd" fill="#FFFFFF" d="M115.1,120.6c0.3,0,0.5-0.2,0.5-0.5c0-0.3-0.2-0.5-0.5-0.5
								c-0.3,0-0.5,0.2-0.5,0.5C114.6,120.4,114.8,120.6,115.1,120.6z"/>
							<path fill-rule="evenodd" clip-rule="evenodd" fill="#FFFFFF" d="M112.8,122.9c0.3,0,0.5-0.2,0.5-0.5c0-0.3-0.2-0.5-0.5-0.5
								c-0.3,0-0.5,0.2-0.5,0.5C112.3,122.7,112.5,122.9,112.8,122.9z"/>
						</g>
					</g>
					<g>
						<path fill="#004682" d="M107.8,124.5c1,0,2.2-0.8,2.2-2.4c0-1.8,0-3.2,0-3.2h-4.5c0,0,0,1.4,0,3.2
							C105.5,123.7,106.8,124.5,107.8,124.5z"/>
						<g>
							<path fill-rule="evenodd" clip-rule="evenodd" fill="#FFFFFF" d="M107.1,120.1c0-0.3-0.2-0.5-0.5-0.5c-0.3,0-0.5,0.2-0.5,0.5
								c0,0.3,0.2,0.5,0.5,0.5C106.9,120.6,107.1,120.4,107.1,120.1z"/>
							<path fill-rule="evenodd" clip-rule="evenodd" fill="#FFFFFF" d="M108.3,121.3c0-0.3-0.2-0.5-0.5-0.5c-0.3,0-0.5,0.2-0.5,0.5
								c0,0.3,0.2,0.5,0.5,0.5C108,121.8,108.3,121.6,108.3,121.3z"/>
							<path fill-rule="evenodd" clip-rule="evenodd" fill="#FFFFFF" d="M109.4,122.4c0-0.3-0.2-0.5-0.5-0.5c-0.3,0-0.5,0.2-0.5,0.5
								c0,0.3,0.2,0.5,0.5,0.5C109.2,122.9,109.4,122.7,109.4,122.4z"/>
							<path fill-rule="evenodd" clip-rule="evenodd" fill="#FFFFFF" d="M108.9,120.6c0.3,0,0.5-0.2,0.5-0.5c0-0.3-0.2-0.5-0.5-0.5
								c-0.3,0-0.5,0.2-0.5,0.5C108.4,120.4,108.6,120.6,108.9,120.6z"/>
							<path fill-rule="evenodd" clip-rule="evenodd" fill="#FFFFFF" d="M106.6,122.9c0.3,0,0.5-0.2,0.5-0.5c0-0.3-0.2-0.5-0.5-0.5
								c-0.3,0-0.5,0.2-0.5,0.5C106.1,122.7,106.3,122.9,106.6,122.9z"/>
						</g>
					</g>
					<g>
						<path fill="#004682" d="M120.1,124.5c1,0,2.3-0.8,2.3-2.4c0-1.8,0-3.2,0-3.2h-4.5c0,0,0,1.4,0,3.2
							C117.9,123.7,119.2,124.5,120.1,124.5z"/>
						<g>
							<path fill-rule="evenodd" clip-rule="evenodd" fill="#FFFFFF" d="M119.5,120.1c0-0.3-0.2-0.5-0.5-0.5c-0.3,0-0.5,0.2-0.5,0.5
								c0,0.3,0.2,0.5,0.5,0.5C119.3,120.6,119.5,120.4,119.5,120.1z"/>
							<path fill-rule="evenodd" clip-rule="evenodd" fill="#FFFFFF" d="M120.6,121.3c0-0.3-0.2-0.5-0.5-0.5c-0.3,0-0.5,0.2-0.5,0.5
								c0,0.3,0.2,0.5,0.5,0.5C120.4,121.8,120.6,121.6,120.6,121.3z"/>
							<path fill-rule="evenodd" clip-rule="evenodd" fill="#FFFFFF" d="M121.8,122.4c0-0.3-0.2-0.5-0.5-0.5c-0.3,0-0.5,0.2-0.5,0.5
								c0,0.3,0.2,0.5,0.5,0.5C121.6,122.9,121.8,122.7,121.8,122.4z"/>
							<path fill-rule="evenodd" clip-rule="evenodd" fill="#FFFFFF" d="M121.3,120.6c0.3,0,0.5-0.2,0.5-0.5c0-0.3-0.2-0.5-0.5-0.5
								c-0.3,0-0.5,0.2-0.5,0.5C120.8,120.4,121,120.6,121.3,120.6z"/>
							<path fill-rule="evenodd" clip-rule="evenodd" fill="#FFFFFF" d="M119,122.9c0.3,0,0.5-0.2,0.5-0.5c0-0.3-0.2-0.5-0.5-0.5
								c-0.3,0-0.5,0.2-0.5,0.5C118.5,122.7,118.7,122.9,119,122.9z"/>
						</g>
					</g>
					<g>
						<path fill="#004682" d="M113.9,132.2c1,0,2.2-0.8,2.2-2.4c0-1.8,0-3.2,0-3.2h-4.5c0,0,0,1.4,0,3.2
							C111.7,131.4,113,132.2,113.9,132.2z"/>
						<g>
							<path fill-rule="evenodd" clip-rule="evenodd" fill="#FFFFFF" d="M113.3,127.9c0-0.3-0.2-0.5-0.5-0.5c-0.3,0-0.5,0.2-0.5,0.5
								c0,0.3,0.2,0.5,0.5,0.5C113.1,128.4,113.3,128.1,113.3,127.9z"/>
							<path fill-rule="evenodd" clip-rule="evenodd" fill="#FFFFFF" d="M114.5,129c0-0.3-0.2-0.5-0.5-0.5c-0.3,0-0.5,0.2-0.5,0.5
								c0,0.3,0.2,0.5,0.5,0.5C114.2,129.5,114.5,129.3,114.5,129z"/>
							<path fill-rule="evenodd" clip-rule="evenodd" fill="#FFFFFF" d="M115.6,130.1c0-0.3-0.2-0.5-0.5-0.5c-0.3,0-0.5,0.2-0.5,0.5
								c0,0.3,0.2,0.5,0.5,0.5C115.4,130.7,115.6,130.4,115.6,130.1z"/>
							<path fill-rule="evenodd" clip-rule="evenodd" fill="#FFFFFF" d="M115.1,128.4c0.3,0,0.5-0.2,0.5-0.5c0-0.3-0.2-0.5-0.5-0.5
								c-0.3,0-0.5,0.2-0.5,0.5C114.6,128.1,114.8,128.4,115.1,128.4z"/>
							<path fill-rule="evenodd" clip-rule="evenodd" fill="#FFFFFF" d="M112.8,130.7c0.3,0,0.5-0.2,0.5-0.5c0-0.3-0.2-0.5-0.5-0.5
								c-0.3,0-0.5,0.2-0.5,0.5C112.3,130.4,112.5,130.7,112.8,130.7z"/>
						</g>
					</g>
				</g>
			</g>
		</g>
	</g>
	<g>
		<path fill="#3C3C3C" d="M222.6,137l-9.6-15.5h-0.9v11.3c1.3,0.1,2.5,0.3,3.7,0.6v3.6h-14v-3.5c0.7-0.2,1.4-0.3,2.2-0.4
			c0.8-0.1,1.6-0.2,2.4-0.3v-27.4c-0.8-0.1-1.6-0.2-2.4-0.3c-0.8-0.1-1.5-0.2-2.2-0.4v-3.5h4.1c0.4,0,0.9,0,1.5,0
			c0.7,0,1.5,0,2.4-0.1c0.9,0,1.9-0.1,2.9-0.1c1,0,2.1,0,3.2,0c1.8,0,3.5,0.2,5.1,0.5c1.5,0.4,2.9,0.9,4,1.7c1.1,0.8,2,1.8,2.6,3
			c0.6,1.2,0.9,2.7,0.9,4.5c0,1.3-0.2,2.6-0.7,3.7c-0.5,1.1-1.1,2.1-2,2.9c-0.8,0.8-1.8,1.5-3,2.1c-1.1,0.5-2.4,0.9-3.8,1.1
			c0.4,0.5,0.7,0.9,1.1,1.5c0.3,0.5,0.7,1,1,1.5l6.2,9.3c0.6,0.1,1.2,0.2,1.8,0.3c0.6,0.1,1.3,0.2,2,0.4v3.6H222.6z M220.5,107
			c-1.2-0.9-3-1.3-5.4-1.3c-0.6,0-1.1,0-1.6,0c-0.5,0-1,0-1.4,0.1v11.3c0.3,0,0.7,0.1,1.1,0.1c0.5,0,1,0,1.7,0
			c2.3,0,4.1-0.5,5.5-1.6c1.3-1.1,2-2.5,2-4.3C222.3,109.3,221.7,107.9,220.5,107z"/>
		<path fill="#3C3C3C" d="M233,137v-3.5c0.7-0.2,1.4-0.3,2.2-0.4c0.8-0.1,1.6-0.2,2.4-0.3v-27.4c-0.8-0.1-1.6-0.2-2.4-0.3
			c-0.8-0.1-1.5-0.2-2.2-0.4v-3.5h23.7v8.5h-4.2c-0.1-0.7-0.3-1.5-0.4-2.1c-0.1-0.7-0.2-1.3-0.3-1.9h-8.5v10.8h6.8
			c0.1-0.6,0.2-1.2,0.3-1.7c0.1-0.5,0.2-1.1,0.4-1.6h3.6V124h-3.6c-0.2-0.5-0.3-1-0.4-1.6s-0.2-1.1-0.3-1.7h-6.8v11.6h8.6
			c0.1-0.6,0.2-1.3,0.3-2c0.1-0.7,0.2-1.4,0.4-2.2h4.2v8.9H233z"/>
		<path fill="#3C3C3C" d="M286.7,116.5c-0.7,1.5-1.6,2.8-2.8,3.8c-1.2,1.1-2.7,1.9-4.4,2.5c-1.7,0.6-3.6,0.9-5.7,0.9
			c-0.4,0-0.8,0-1.3,0c-0.5,0-0.9,0-1.4-0.1v9c0.8,0.1,1.6,0.2,2.4,0.3c0.8,0.1,1.5,0.2,2.2,0.4v3.5h-14.9v-3.5
			c0.7-0.2,1.4-0.3,2.2-0.4c0.8-0.1,1.6-0.2,2.4-0.3v-27.4c-0.8-0.1-1.6-0.2-2.4-0.3c-0.8-0.1-1.5-0.2-2.2-0.4v-3.5h4
			c0.4,0,1,0,1.7,0c0.7,0,1.5,0,2.4-0.1c0.9,0,1.8-0.1,2.8-0.1c1,0,1.9,0,2.8,0c4.3,0,7.5,1,9.8,2.9c2.2,1.9,3.4,4.5,3.4,7.9
			C287.7,113.5,287.3,115.1,286.7,116.5z M279.8,107.4c-1.2-1.1-3.1-1.7-5.8-1.7c-0.6,0-1.1,0-1.5,0c-0.5,0-0.9,0-1.4,0.1v13.1
			c0.4,0.1,0.8,0.1,1.3,0.2c0.4,0,0.8,0.1,1.3,0.1c2.4,0,4.4-0.7,5.8-1.9c1.4-1.2,2.2-2.9,2.2-5
			C281.7,110.2,281.1,108.6,279.8,107.4z"/>
		<path fill="#3C3C3C" d="M321,105.4v17.9c0,4.8-1.2,8.4-3.7,10.7c-2.5,2.3-6.1,3.5-10.8,3.5c-2.8,0-5.1-0.4-6.9-1.1
			c-1.8-0.7-3.1-1.7-4.1-2.8c-1-1.2-1.7-2.5-2-4.1c-0.4-1.5-0.6-3.1-0.6-4.8v-19.4c-0.6-0.1-1.2-0.2-1.8-0.3
			c-0.6-0.1-1.2-0.2-1.7-0.4v-3.6h13.2v3.6c-0.6,0.2-1.3,0.3-2,0.4c-0.7,0.1-1.4,0.2-2,0.2v19c0,1.2,0.1,2.3,0.3,3.3
			c0.2,1,0.6,1.9,1.2,2.6c0.6,0.7,1.4,1.3,2.5,1.7c1.1,0.4,2.4,0.6,4.1,0.6c1.4,0,2.7-0.2,3.8-0.5c1.1-0.3,1.9-0.8,2.6-1.6
			c0.7-0.7,1.2-1.7,1.5-2.8s0.5-2.6,0.5-4.2v-18.2c-0.7-0.1-1.4-0.1-2.1-0.2c-0.7-0.1-1.4-0.2-2-0.4v-3.6h13.2v3.6
			C323.4,105,322.2,105.2,321,105.4z M306.1,98.6l-2.1-3.2l8.3-5.8l2.5,3.9L306.1,98.6z"/>
		<path fill="#3C3C3C" d="M355.4,129.8c-0.4,1.3-1.2,2.5-2.3,3.6c-1.1,1.1-2.5,2-4.3,2.7c-1.8,0.7-4.1,1.1-6.8,1.1
			c-1.1,0-2.5,0-4.2-0.1c-1.7-0.1-3.5-0.1-5.5-0.1h-4.6v-3.5c0.7-0.2,1.4-0.3,2.2-0.4c0.8-0.1,1.6-0.2,2.4-0.3v-27.4
			c-0.8-0.1-1.6-0.2-2.4-0.3c-0.8-0.1-1.5-0.2-2.2-0.4v-3.5h4.5c1.3,0,3,0,5.1-0.1c2-0.1,4.1-0.1,6.3-0.1c3.9,0,6.9,0.8,8.9,2.3
			c2,1.5,3,3.7,3,6.4c0,1.8-0.6,3.5-1.7,5c-1.1,1.5-2.6,2.5-4.4,3.2v0.1c1.2,0.2,2.2,0.6,3,1.1c0.9,0.5,1.6,1.2,2.1,1.9
			c0.5,0.7,1,1.6,1.2,2.4c0.3,0.9,0.4,1.8,0.4,2.7C356,127.3,355.8,128.5,355.4,129.8z M348.9,108.6c-0.2-0.6-0.6-1.1-1.1-1.6
			c-0.5-0.4-1.2-0.8-2.1-1c-0.9-0.2-1.9-0.4-3.2-0.4c-0.8,0-1.6,0-2.3,0c-0.7,0-1.5,0-2.2,0.1v10.6c0.5,0,0.9,0.1,1.4,0.1s1,0,1.6,0
			c2.7,0,4.7-0.5,6.1-1.5c1.4-1,2.1-2.4,2.1-4.2C349.2,109.9,349.1,109.2,348.9,108.6z M349.3,123.6c-0.4-0.7-1-1.3-1.8-1.7
			c-0.8-0.4-1.7-0.8-2.7-1c-1.1-0.2-2.2-0.3-3.5-0.3c-0.1,0-0.4,0-0.6,0s-0.6,0-0.9,0c-0.3,0-0.6,0-0.9,0c-0.3,0-0.6,0-0.8,0v11.4
			c1,0.2,2.4,0.3,4.2,0.3c2.6,0,4.6-0.6,5.9-1.7c1.3-1.1,1.9-2.6,1.9-4.4C349.9,125.2,349.7,124.4,349.3,123.6z"/>
		<path fill="#3C3C3C" d="M359.7,137v-3.5c0.7-0.2,1.4-0.3,2.2-0.4s1.6-0.2,2.4-0.3v-27.4c-0.8-0.1-1.6-0.2-2.4-0.3
			s-1.5-0.2-2.2-0.4v-3.5h14.9v3.5c-0.7,0.2-1.4,0.3-2.2,0.4s-1.6,0.2-2.4,0.3v26.8h8.1c0.2-1.4,0.4-2.9,0.7-4.6h4.1v9.4H359.7z"/>
		<path fill="#3C3C3C" d="M384.6,137v-3.5c0.7-0.2,1.4-0.3,2.2-0.4s1.6-0.2,2.4-0.3v-27.4c-0.8-0.1-1.6-0.2-2.4-0.3
			s-1.5-0.2-2.2-0.4v-3.5h14.9v3.5c-0.7,0.2-1.4,0.3-2.2,0.4s-1.6,0.2-2.4,0.3v27.4c0.8,0.1,1.6,0.2,2.4,0.3s1.5,0.2,2.2,0.4v3.5
			H384.6z"/>
		<path fill="#3C3C3C" d="M424.7,111.2c-0.2-0.9-0.3-1.7-0.4-2.5c-0.1-0.8-0.2-1.5-0.2-2.2c-0.8-0.2-1.6-0.4-2.3-0.4
			c-0.7-0.1-1.5-0.1-2.3-0.1c-1.7,0-3.2,0.3-4.5,1c-1.3,0.7-2.4,1.6-3.2,2.7c-0.9,1.1-1.5,2.5-1.9,4.1c-0.4,1.6-0.6,3.4-0.6,5.3
			c0,2,0.2,3.9,0.7,5.5c0.4,1.6,1.1,3,2.1,4.1c1,1.1,2.2,2,3.7,2.5c1.5,0.6,3.3,0.9,5.4,0.9c1.3,0,2.7-0.1,4.2-0.5
			c1.4-0.3,2.7-0.7,3.8-1.2l0.4,5.3c-1.5,0.5-3,0.9-4.7,1.2c-1.6,0.3-3.3,0.5-5,0.5c-5.6,0-9.8-1.5-12.6-4.6
			c-2.8-3.1-4.2-7.3-4.2-12.7c0-2.8,0.4-5.4,1.1-7.8c0.7-2.4,1.8-4.4,3.3-6.1c1.5-1.7,3.3-3,5.6-4c2.2-1,4.9-1.4,8-1.4
			c1.3,0,2.7,0.1,4.1,0.3c1.4,0.2,2.8,0.4,4.2,0.7v9.4H424.7z"/>
		<path fill="#3C3C3C" d="M454.2,137v-3.5c0.6-0.1,1.3-0.3,2-0.4c0.7-0.1,1.4-0.2,2.1-0.3l-1.9-5h-14.2l-1.8,5
			c0.7,0.1,1.4,0.2,2.1,0.3c0.7,0.1,1.4,0.2,2,0.4v3.5h-12.9v-3.5c0.5-0.1,1-0.3,1.5-0.3c0.5-0.1,1.1-0.2,1.6-0.2l11.4-31.7h6.9
			l11.6,31.7c0.5,0.1,1,0.2,1.6,0.2c0.5,0.1,1.1,0.2,1.5,0.3v3.5H454.2z M450.9,112.5c-0.4-0.9-0.7-1.8-0.9-2.7
			c-0.2-0.9-0.5-1.8-0.7-2.8h-0.1c-0.2,0.9-0.4,1.9-0.7,2.8c-0.3,1-0.6,1.9-1,2.9l-3.9,10.7h11.2L450.9,112.5z"/>
		<path fill="#3C3C3C" d="M227.6,161.5c-0.7,1.5-1.6,2.8-2.8,3.8c-1.2,1.1-2.7,1.9-4.4,2.5c-1.7,0.6-3.6,0.9-5.7,0.9
			c-0.4,0-0.8,0-1.3,0c-0.5,0-0.9,0-1.4-0.1v9c0.8,0.1,1.6,0.2,2.4,0.3c0.8,0.1,1.5,0.2,2.2,0.4v3.5h-14.9v-3.5
			c0.7-0.2,1.4-0.3,2.2-0.4c0.8-0.1,1.6-0.2,2.4-0.3v-27.4c-0.8-0.1-1.6-0.2-2.4-0.3c-0.8-0.1-1.5-0.2-2.2-0.4v-3.5h4
			c0.4,0,1,0,1.7,0c0.7,0,1.5,0,2.4-0.1c0.9,0,1.8-0.1,2.8-0.1c1,0,1.9,0,2.8,0c4.3,0,7.5,1,9.8,2.9c2.2,1.9,3.4,4.5,3.4,7.9
			C228.6,158.5,228.3,160.1,227.6,161.5z M220.8,152.4c-1.2-1.1-3.1-1.7-5.8-1.7c-0.6,0-1.1,0-1.5,0c-0.5,0-0.9,0-1.4,0.1v13.1
			c0.4,0.1,0.8,0.1,1.3,0.2c0.4,0,0.8,0.1,1.3,0.1c2.4,0,4.4-0.7,5.8-1.9c1.4-1.2,2.2-2.9,2.2-5C222.6,155.2,222,153.6,220.8,152.4z
			"/>
		<path fill="#3C3C3C" d="M263,171.6c-0.9,2.3-2.1,4.3-3.7,5.9c-1.6,1.6-3.4,2.9-5.5,3.7c-2.1,0.8-4.3,1.3-6.7,1.3
			c-2.7,0-5.1-0.4-7.1-1.3c-2-0.8-3.7-2.1-5-3.6c-1.3-1.6-2.3-3.5-3-5.7c-0.7-2.2-1-4.7-1-7.4c0-3,0.5-5.6,1.4-7.9
			c0.9-2.3,2.1-4.3,3.7-5.9c1.6-1.6,3.4-2.8,5.5-3.7c2.1-0.8,4.3-1.3,6.7-1.3c2.4,0,4.6,0.4,6.6,1.1c2,0.7,3.7,1.9,5.1,3.4
			c1.4,1.5,2.5,3.4,3.3,5.6c0.8,2.2,1.2,4.9,1.2,7.9C264.3,166.6,263.9,169.2,263,171.6z M255.5,154.2c-1.8-2.3-4.4-3.5-7.8-3.5
			c-1.4,0-2.7,0.3-4,0.8c-1.3,0.5-2.4,1.4-3.4,2.5c-1,1.1-1.7,2.5-2.3,4.1c-0.6,1.6-0.9,3.5-0.9,5.7c0,2,0.2,3.9,0.6,5.6
			c0.4,1.7,1.1,3.1,1.9,4.3s1.9,2.1,3.2,2.8c1.3,0.7,2.9,1,4.6,1c1.3,0,2.6-0.3,3.9-0.8c1.3-0.5,2.4-1.3,3.4-2.4
			c1-1.1,1.8-2.5,2.4-4.1c0.6-1.6,0.9-3.6,0.9-5.8C258.2,159.8,257.3,156.5,255.5,154.2z"/>
		<path fill="#3C3C3C" d="M288.1,182l-9.6-15.5h-0.9v11.3c1.3,0.1,2.5,0.3,3.7,0.6v3.6h-14v-3.5c0.7-0.2,1.4-0.3,2.2-0.4
			c0.8-0.1,1.6-0.2,2.4-0.3v-27.4c-0.8-0.1-1.6-0.2-2.4-0.3c-0.8-0.1-1.5-0.2-2.2-0.4v-3.5h4.1c0.4,0,0.9,0,1.5,0
			c0.7,0,1.5,0,2.4-0.1c0.9,0,1.9-0.1,2.9-0.1c1,0,2.1,0,3.2,0c1.8,0,3.5,0.2,5.1,0.5c1.5,0.4,2.9,0.9,4,1.7c1.1,0.8,2,1.8,2.6,3
			c0.6,1.2,0.9,2.7,0.9,4.5c0,1.3-0.2,2.6-0.7,3.7c-0.5,1.1-1.1,2.1-2,2.9c-0.8,0.8-1.8,1.5-3,2.1c-1.1,0.5-2.4,0.9-3.8,1.1
			c0.4,0.5,0.7,0.9,1.1,1.5c0.3,0.5,0.7,1,1,1.5l6.2,9.3c0.6,0.1,1.2,0.2,1.8,0.3c0.6,0.1,1.3,0.2,2,0.4v3.6H288.1z M286,152
			c-1.2-0.9-3-1.3-5.4-1.3c-0.6,0-1.1,0-1.6,0c-0.5,0-1,0-1.4,0.1v11.3c0.3,0,0.7,0.1,1.1,0.1c0.5,0,1,0,1.7,0
			c2.3,0,4.1-0.5,5.5-1.6c1.3-1.1,2-2.5,2-4.3C287.8,154.3,287.2,152.9,286,152z"/>
		<path fill="#3C3C3C" d="M322.4,155.7c-0.2-0.9-0.3-1.8-0.5-2.5c-0.1-0.8-0.2-1.5-0.3-2.2h-6.5v26.8c0.8,0.1,1.6,0.2,2.4,0.3
			s1.5,0.2,2.2,0.4v3.5h-14.9v-3.5c0.7-0.2,1.4-0.3,2.2-0.4c0.8-0.1,1.6-0.2,2.4-0.3v-26.8h-6.5c-0.1,0.7-0.2,1.4-0.3,2.2
			c-0.1,0.8-0.2,1.6-0.4,2.5h-4.1v-9.5h28.4v9.5H322.4z"/>
		<path fill="#3C3C3C" d="M360,150.4v17.9c0,4.8-1.2,8.4-3.7,10.7c-2.5,2.3-6.1,3.5-10.8,3.5c-2.8,0-5.1-0.4-6.9-1.1
			c-1.8-0.7-3.1-1.7-4.1-2.8c-1-1.2-1.7-2.5-2-4.1c-0.4-1.5-0.6-3.1-0.6-4.8v-19.4c-0.6-0.1-1.2-0.2-1.8-0.3
			c-0.6-0.1-1.2-0.2-1.7-0.4v-3.6h13.2v3.6c-0.6,0.2-1.3,0.3-2,0.4c-0.7,0.1-1.4,0.2-2,0.2v19c0,1.2,0.1,2.3,0.3,3.3
			c0.2,1,0.6,1.9,1.2,2.6c0.6,0.7,1.4,1.3,2.5,1.7s2.4,0.6,4.1,0.6c1.4,0,2.7-0.2,3.8-0.5c1.1-0.3,1.9-0.8,2.6-1.6
			c0.7-0.7,1.2-1.7,1.5-2.8s0.5-2.6,0.5-4.2v-18.2c-0.7-0.1-1.4-0.1-2.1-0.2c-0.7-0.1-1.4-0.2-2-0.4v-3.6h13.2v3.6
			C362.4,150,361.2,150.2,360,150.4z"/>
		<path fill="#3C3C3C" d="M398,167.4c-0.5,0.1-1.1,0.2-1.7,0.2v12.7c-1.8,0.7-3.7,1.2-5.8,1.6s-4.2,0.6-6.2,0.6
			c-2.8,0-5.2-0.4-7.4-1.2s-4.1-2-5.6-3.5c-1.5-1.5-2.7-3.3-3.6-5.5c-0.8-2.2-1.2-4.7-1.2-7.4c0-2.8,0.5-5.4,1.4-7.7
			c0.9-2.3,2.2-4.4,3.9-6.1c1.7-1.7,3.7-3,6.1-3.9c2.4-0.9,5.1-1.4,8.2-1.4c1.7,0,3.3,0.1,4.9,0.3c1.6,0.2,3.2,0.5,4.9,0.9v9h-4.3
			c-0.2-0.8-0.3-1.6-0.4-2.4c-0.1-0.8-0.2-1.5-0.3-2.2c-0.9-0.2-1.8-0.4-2.7-0.5c-0.9-0.1-1.8-0.2-2.6-0.2c-1.8,0-3.5,0.3-5,0.8
			c-1.6,0.6-2.9,1.4-4.1,2.6s-2.1,2.6-2.8,4.3c-0.7,1.7-1,3.6-1,5.9c0,4.2,1.1,7.4,3.3,9.7c2.2,2.3,5.3,3.4,9.1,3.4
			c1,0,2-0.1,2.9-0.2c0.9-0.1,1.8-0.4,2.6-0.6v-8.8c-0.8-0.1-1.6-0.2-2.4-0.3c-0.8-0.1-1.5-0.2-2.1-0.4v-3.5h13.5v3.6
			C399.1,167.2,398.6,167.3,398,167.4z"/>
		<path fill="#3C3C3C" d="M433.5,150.4v17.9c0,4.8-1.2,8.4-3.7,10.7c-2.5,2.3-6.1,3.5-10.8,3.5c-2.8,0-5.1-0.4-6.9-1.1
			c-1.8-0.7-3.1-1.7-4.1-2.8c-1-1.2-1.7-2.5-2-4.1c-0.4-1.5-0.6-3.1-0.6-4.8v-19.4c-0.6-0.1-1.2-0.2-1.8-0.3
			c-0.6-0.1-1.2-0.2-1.7-0.4v-3.6h13.2v3.6c-0.6,0.2-1.3,0.3-2,0.4c-0.7,0.1-1.4,0.2-2,0.2v19c0,1.2,0.1,2.3,0.3,3.3
			c0.2,1,0.6,1.9,1.2,2.6c0.6,0.7,1.4,1.3,2.5,1.7s2.4,0.6,4.1,0.6c1.4,0,2.7-0.2,3.8-0.5c1.1-0.3,1.9-0.8,2.6-1.6
			c0.7-0.7,1.2-1.7,1.5-2.8s0.5-2.6,0.5-4.2v-18.2c-0.7-0.1-1.4-0.1-2.1-0.2c-0.7-0.1-1.4-0.2-2-0.4v-3.6H437v3.6
			C435.8,150,434.7,150.2,433.5,150.4z"/>
		<path fill="#3C3C3C" d="M440.1,182v-3.5c0.7-0.2,1.4-0.3,2.2-0.4s1.6-0.2,2.4-0.3v-27.4c-0.8-0.1-1.6-0.2-2.4-0.3
			c-0.8-0.1-1.5-0.2-2.2-0.4v-3.5h23.7v8.5h-4.2c-0.1-0.7-0.3-1.5-0.4-2.1c-0.1-0.7-0.2-1.3-0.3-1.9h-8.5v10.8h6.8
			c0.1-0.6,0.2-1.2,0.3-1.7c0.1-0.5,0.2-1.1,0.4-1.6h3.6V169h-3.6c-0.2-0.5-0.3-1-0.4-1.6c-0.1-0.6-0.2-1.1-0.3-1.7h-6.8v11.6h8.6
			c0.1-0.6,0.2-1.3,0.3-2c0.1-0.7,0.2-1.4,0.4-2.2h4.2v8.9H440.1z"/>
		<path fill="#3C3C3C" d="M490,175.7c-0.6,1.4-1.5,2.6-2.7,3.6c-1.2,1-2.6,1.8-4.3,2.4c-1.7,0.6-3.6,0.8-5.6,0.8
			c-2.9,0-5.5-0.3-7.8-0.9v-9h4.2c0.1,0.8,0.3,1.6,0.4,2.4c0.1,0.8,0.2,1.5,0.3,2.1c0.5,0.1,1,0.2,1.6,0.3c0.6,0.1,1.1,0.1,1.6,0.1
			c1,0,2-0.1,2.9-0.3c0.9-0.2,1.7-0.5,2.3-1c0.7-0.4,1.2-1,1.5-1.7c0.4-0.7,0.6-1.5,0.6-2.5c0-1.2-0.4-2.2-1.2-3s-1.8-1.4-2.9-1.9
			c-1.2-0.5-2.4-1-3.8-1.5c-1.4-0.5-2.7-1.1-3.8-1.9s-2.1-1.8-2.9-2.9s-1.2-2.7-1.2-4.7c0-1.5,0.3-2.9,0.9-4.2s1.4-2.4,2.5-3.3
			c1.1-0.9,2.5-1.6,4.1-2.1c1.6-0.5,3.4-0.8,5.5-0.8c1.3,0,2.5,0.1,3.6,0.2c1.1,0.1,2.3,0.3,3.5,0.6v8.6h-4.2
			c-0.2-0.8-0.3-1.5-0.4-2.3c-0.1-0.7-0.2-1.4-0.2-2.1c-0.3-0.1-0.7-0.1-1.1-0.2c-0.5-0.1-0.9-0.1-1.3-0.1c-2.2,0-3.9,0.5-5,1.4
			c-1.1,0.9-1.7,2.1-1.7,3.6c0,1.2,0.4,2.2,1.2,2.9c0.8,0.7,1.8,1.4,3,1.9c1.2,0.5,2.5,1.1,3.8,1.6c1.4,0.5,2.6,1.1,3.8,1.9
			c1.2,0.8,2.2,1.7,3,2.9c0.8,1.2,1.2,2.7,1.2,4.6C491,172.8,490.6,174.3,490,175.7z"/>
		<path fill="#3C3C3C" d="M515,182v-3.5c0.6-0.1,1.3-0.3,2-0.4c0.7-0.1,1.4-0.2,2.1-0.3l-1.9-5H503l-1.8,5c0.7,0.1,1.4,0.2,2.1,0.3
			c0.7,0.1,1.4,0.2,2,0.4v3.5h-12.9v-3.5c0.5-0.1,1-0.3,1.5-0.3c0.5-0.1,1.1-0.2,1.6-0.2l11.4-31.7h6.9l11.6,31.7
			c0.5,0.1,1,0.2,1.6,0.2c0.5,0.1,1.1,0.2,1.5,0.3v3.5H515z M511.7,157.5c-0.4-0.9-0.7-1.8-0.9-2.7c-0.2-0.9-0.5-1.8-0.7-2.8H510
			c-0.2,0.9-0.4,1.9-0.7,2.8c-0.3,1-0.6,1.9-1,2.9l-3.9,10.7h11.2L511.7,157.5z"/>
	</g>
</g>
</svg>
